<?xml version="1.0" encoding="UTF-8" standalone="no"?>
<svg
   id="svg1034"
   width="8.5in"
   height="11in"
   version="1.1"
   sodipodi:docname="template-scorecard-pg1-v23.3.svg"
   inkscape:version="1.4 (e7c3feb1, 2024-10-09)"
   xmlns:inkscape="http://www.inkscape.org/namespaces/inkscape"
   xmlns:sodipodi="http://sodipodi.sourceforge.net/DTD/sodipodi-0.dtd"
   xmlns="http://www.w3.org/2000/svg"
   xmlns:svg="http://www.w3.org/2000/svg">
  <sodipodi:namedview
     id="namedview1"
     pagecolor="#ffffff"
     bordercolor="#000000"
     borderopacity="0.25"
     inkscape:showpageshadow="2"
     inkscape:pageopacity="0.0"
     inkscape:pagecheckerboard="0"
     inkscape:deskcolor="#d1d1d1"
     inkscape:document-units="in"
     inkscape:zoom="1.0743935"
     inkscape:cx="321.57676"
     inkscape:cy="263.86979"
     inkscape:window-width="1512"
     inkscape:window-height="916"
     inkscape:window-x="0"
     inkscape:window-y="38"
     inkscape:window-maximized="1"
     inkscape:current-layer="svg1034" />
  <defs
     id="defs4">
    <style
       id="style2">.cls-1,.cls-2{letter-spacing:-.01em;}.cls-1,.cls-3,.cls-4,.cls-5,.cls-6,.cls-7,.cls-8,.cls-9,.cls-10,.cls-11,.cls-12,.cls-13,.cls-14{font-weight:200;}.cls-1,.cls-3,.cls-4,.cls-5,.cls-6,.cls-8,.cls-9,.cls-10,.cls-11,.cls-13,.cls-14{font-family:Montserrat-ExtraLight, Montserrat;}.cls-15{letter-spacing:-.01em;}.cls-15,.cls-16,.cls-17,.cls-18,.cls-19,.cls-20,.cls-21,.cls-22,.cls-23,.cls-24,.cls-25,.cls-26,.cls-27,.cls-28,.cls-29{font-family:Montserrat-Medium, Montserrat;font-weight:500;}.cls-30{letter-spacing:.19em;}.cls-16,.cls-31,.cls-9{letter-spacing:0em;}.cls-32{letter-spacing:.33em;}.cls-33,.cls-20,.cls-34{fill:#fff;}.cls-35{letter-spacing:-.02em;}.cls-36{letter-spacing:.18em;}.cls-18{letter-spacing:-.01em;}.cls-37{fill:#e1251b;}.cls-37,.cls-38{font-family:DharmaGothicE-Regular, 'Dharma Gothic E';font-size:60px;letter-spacing:.04em;}.cls-19,.cls-39{letter-spacing:-.01em;}.cls-40{letter-spacing:.18em;}.cls-41{letter-spacing:.34em;}.cls-42{letter-spacing:.19em;}.cls-20{font-size:16px;}.cls-20,.cls-34{isolation:isolate;}.cls-43{fill:#8b8a8d;}.cls-44,.cls-45,.cls-23,.cls-46,.cls-7,.cls-47,.cls-12{fill:#00263e;}.cls-44,.cls-23{font-size:23px;}.cls-48{letter-spacing:0em;}.cls-21{letter-spacing:.01em;}.cls-49{letter-spacing:.34em;}.cls-22{letter-spacing:0em;}.cls-3,.cls-50{letter-spacing:-.03em;}.cls-51{fill:#119fda;}.cls-52{letter-spacing:-.03em;}.cls-45{font-size:100px;}.cls-45,.cls-34,.cls-46,.cls-53,.cls-54{font-weight:700;}.cls-45,.cls-46,.cls-53,.cls-54{font-family:DharmaGothicE-Bold, 'Dharma Gothic E';}.cls-55{stroke:#8b8a8d;}.cls-55,.cls-56{fill:none;stroke-miterlimit:10;}.cls-57,.cls-8{letter-spacing:0em;}.cls-5{letter-spacing:-.03em;}.cls-34{font-family:Montserrat-Bold, Montserrat;font-size:24px;}.cls-24{letter-spacing:0em;}.cls-58{letter-spacing:-.03em;}.cls-59{letter-spacing:.33em;}.cls-6,.cls-60{letter-spacing:0em;}.cls-61{letter-spacing:.19em;}.cls-62{letter-spacing:0em;}.cls-46{font-size:61.8px;}.cls-25{letter-spacing:-.02em;}.cls-63{letter-spacing:-.02em;}.cls-64,.cls-53{fill:#009edb;}.cls-53{font-size:33px;letter-spacing:.04em;}.cls-65{fill:#e02726;}.cls-26,.cls-66{letter-spacing:0em;}.cls-7{font-size:29px;}.cls-7,.cls-12{font-family:DharmaGothicE-Thin, 'Dharma Gothic E';}.cls-67{letter-spacing:.19em;}.cls-68{fill:#df271c;}.cls-27{letter-spacing:-.05em;}.cls-69,.cls-13{letter-spacing:-.04em;}.cls-28{letter-spacing:-.02em;}.cls-38,.cls-54{fill:#00a0df;}.cls-10{letter-spacing:0em;}.cls-70{letter-spacing:.2em;}.cls-71{letter-spacing:-.02em;}.cls-72{letter-spacing:.17em;}.cls-11{letter-spacing:-.03em;}.cls-73{fill:#e6e7e8;}.cls-74{letter-spacing:.19em;}.cls-47{font-family:Montserrat-SemiBold, Montserrat;font-size:28px;font-weight:600;}.cls-29,.cls-75{letter-spacing:-.01em;}.cls-54{font-size:85px;}.cls-12{font-size:36.58px;}.cls-76{letter-spacing:.19em;}.cls-77{fill:#8a898c;}.cls-78{fill:#484846;}.cls-56{stroke:#e6e7e8;}.cls-79{letter-spacing:.13em;}.cls-80{letter-spacing:-.02em;}.cls-14{letter-spacing:0em;}</style>
  </defs>
  <rect
     x="0.54"
     y="51.73"
     width="815.16998"
     height="191.02"
     id="rect364"
     style="fill:#ffffff;stroke:#ffffff;stroke-width:0;stroke-linecap:square;stroke-miterlimit:4;stroke-dasharray:none" />
  <text
     class="cls-45"
     id="text8"
     x="666.03998"
     y="183.97"
     style="font-style:normal;font-variant:normal;font-weight:bold;font-stretch:normal;font-size:74.6667px;font-family:DharmaGothicE-Bold, 'Dharma Gothic E';-inkscape-font-specification:'DharmaGothicE-Bold, Dharma Gothic E, Bold';font-variant-ligatures:normal;font-variant-caps:normal;font-variant-numeric:normal;font-variant-east-asian:normal;fill:#00263e"><tspan
       x="666.03998"
       y="183.97"
       id="tspan6"
       style="font-style:normal;font-variant:normal;font-weight:bold;font-stretch:normal;font-size:74.6667px;font-family:DharmaGothicE-Bold, 'Dharma Gothic E';-inkscape-font-specification:'DharmaGothicE-Bold, Dharma Gothic E, Bold';font-variant-ligatures:normal;font-variant-caps:normal;font-variant-numeric:normal;font-variant-east-asian:normal">2023</tspan></text>
  <path
     id="header_bar"
     class="cls-73"
     d="M0,242.75H815.71v813.25H0V242.75Z" />
  <path
     id="header_bar-2"
     class="cls-68"
     d="M.54,51.73H816.25V0H.54V51.73Z" />
  <text
     class="cls-34"
     transform="translate(245.79 36.16)"
     id="text22"><tspan
       class="cls-49"
       x="0"
       y="0"
       id="tspan12">CITY S</tspan><tspan
       class="cls-32"
       x="127.08"
       y="0"
       id="tspan14">C</tspan><tspan
       class="cls-41"
       x="151.56"
       y="0"
       id="tspan16">ORE</tspan><tspan
       class="cls-59"
       x="228.91"
       y="0"
       id="tspan18">C</tspan><tspan
       class="cls-49"
       x="253.49"
       y="0"
       id="tspan20">ARD</tspan></text>
  <line
     class="cls-55"
     x1="201.14999"
     y1="220.09"
     x2="201.14999"
     y2="73.410004"
     id="line24" />
  <rect
     class="cls-33"
     x="44.22"
     y="314.58"
     width="729.24"
     height="359.07"
     id="rect26" />
  <rect
     class="cls-64"
     x="43.77"
     y="281.02"
     width="729.24"
     height="33.14"
     id="rect28" />
  <text
     class="cls-20"
     transform="translate(58.45 303.34)"
     id="text50"><tspan
       class="cls-70"
       x="0"
       y="0"
       id="tspan30">BI</tspan><tspan
       class="cls-76"
       x="23.47"
       y="0"
       id="tspan32">C</tspan><tspan
       class="cls-72"
       x="38.05"
       y="0"
       id="tspan34">Y</tspan><tspan
       class="cls-70"
       x="51.12"
       y="0"
       id="tspan36">CLE NE</tspan><tspan
       class="cls-67"
       x="130.13"
       y="0"
       id="tspan38">T</tspan><tspan
       class="cls-36"
       x="142.59"
       y="0"
       id="tspan40">W</tspan><tspan
       class="cls-70"
       x="163.46"
       y="0"
       id="tspan42">ORK ANA</tspan><tspan
       class="cls-79"
       x="263.15"
       y="0"
       id="tspan44">L</tspan><tspan
       class="cls-40"
       x="274.69"
       y="0"
       id="tspan46">Y</tspan><tspan
       class="cls-70"
       x="288"
       y="0"
       id="tspan48">SIS</tspan></text>
  <g
     id="g214"
     transform="translate(16)">
    <text
       class="cls-44"
       transform="translate(104.68,370.63)"
       id="text198"><tspan
         class="cls-29"
         x="0"
         y="0"
         id="tspan52">P</tspan><tspan
         class="cls-17"
         x="16.33"
         y="0"
         id="tspan54">eople</tspan><tspan
         class="cls-4"
         x="81.190002"
         y="0"
         xml:space="preserve"
         id="tspan56"> - </tspan><tspan
         class="cls-11"
         x="103.25"
         y="0"
         id="tspan58">A</tspan><tspan
         class="cls-3"
         x="118.63"
         y="0"
         id="tspan60">cc</tspan><tspan
         class="cls-4"
         x="143.06"
         y="0"
         id="tspan62">ess</tspan><tspan
         class="cls-8"
         x="183.61"
         y="0"
         id="tspan64">t</tspan><tspan
         class="cls-4"
         x="191.96001"
         y="0"
         id="tspan66">o where other people li</tspan><tspan
         class="cls-1"
         x="451.89999"
         y="0"
         id="tspan68">v</tspan><tspan
         class="cls-9"
         x="462.38"
         y="0"
         id="tspan70">e</tspan><tspan
         class="cls-17"
         x="0"
         y="51.889999"
         id="tspan72">Oppo</tspan><tspan
         class="cls-21"
         x="65.300003"
         y="51.889999"
         id="tspan74">r</tspan><tspan
         class="cls-17"
         x="75.07"
         y="51.889999"
         id="tspan76">tuni</tspan><tspan
         class="cls-24"
         x="122.24"
         y="51.889999"
         id="tspan78">t</tspan><tspan
         class="cls-17"
         x="131.53999"
         y="51.889999"
         id="tspan80">y</tspan><tspan
         class="cls-14"
         x="144.39"
         y="51.889999"
         xml:space="preserve"
         id="tspan82"> - </tspan><tspan
         class="cls-5"
         x="166.45"
         y="51.889999"
         id="tspan84">A</tspan><tspan
         class="cls-3"
         x="181.83"
         y="51.889999"
         id="tspan86">cc</tspan><tspan
         class="cls-4"
         x="206.25999"
         y="51.889999"
         id="tspan88">ess</tspan><tspan
         class="cls-6"
         x="246.81"
         y="51.889999"
         id="tspan90">t</tspan><tspan
         class="cls-14"
         x="255.16"
         y="51.889999"
         id="tspan92">o jobs and edu</tspan><tspan
         class="cls-13"
         x="422.37"
         y="51.889999"
         id="tspan94">c</tspan><tspan
         class="cls-4"
         x="434.39001"
         y="51.889999"
         id="tspan96">ation</tspan><tspan
         class="cls-28"
         x="0"
         y="103.79"
         id="tspan98">C</tspan><tspan
         class="cls-17"
         x="16.120001"
         y="103.79"
         id="tspan100">o</tspan><tspan
         class="cls-29"
         x="30.73"
         y="103.79"
         id="tspan102">r</tspan><tspan
         class="cls-17"
         x="39.880001"
         y="103.79"
         id="tspan104">e Se</tspan><tspan
         class="cls-21"
         x="88.5"
         y="103.79"
         id="tspan106">r</tspan><tspan
         class="cls-17"
         x="98.279999"
         y="103.79"
         id="tspan108">vi</tspan><tspan
         class="cls-22"
         x="117.55"
         y="103.79"
         id="tspan110">c</tspan><tspan
         class="cls-17"
         x="130.5"
         y="103.79"
         id="tspan112">es</tspan><tspan
         class="cls-4"
         x="156.10001"
         y="103.79"
         xml:space="preserve"
         id="tspan114"> - </tspan><tspan
         class="cls-5"
         x="178.16"
         y="103.79"
         id="tspan116">A</tspan><tspan
         class="cls-3"
         x="193.53999"
         y="103.79"
         id="tspan118">cc</tspan><tspan
         class="cls-4"
         x="217.97"
         y="103.79"
         id="tspan120">ess</tspan><tspan
         class="cls-8"
         x="258.51999"
         y="103.79"
         id="tspan122">t</tspan><tspan
         class="cls-4"
         x="266.87"
         y="103.79"
         id="tspan124">o basic needs</tspan><tspan
         class="cls-17"
         x="0"
         y="155.67999"
         id="tspan126">Rec</tspan><tspan
         class="cls-29"
         x="43.93"
         y="155.67999"
         id="tspan128">r</tspan><tspan
         class="cls-25"
         x="53.080002"
         y="155.67999"
         id="tspan130">e</tspan><tspan
         class="cls-17"
         x="66.809998"
         y="155.67999"
         id="tspan132">ation</tspan><tspan
         class="cls-14"
         x="126.77"
         y="155.67999"
         xml:space="preserve"
         id="tspan134"> - </tspan><tspan
         class="cls-5"
         x="148.83"
         y="155.67999"
         id="tspan136">A</tspan><tspan
         class="cls-3"
         x="164.22"
         y="155.67999"
         id="tspan138">cc</tspan><tspan
         class="cls-4"
         x="188.64"
         y="155.67999"
         id="tspan140">ess</tspan><tspan
         class="cls-6"
         x="229.19"
         y="155.67999"
         id="tspan142">t</tspan><tspan
         class="cls-14"
         x="237.53999"
         y="155.67999"
         id="tspan144">o par</tspan><tspan
         class="cls-10"
         x="294.98999"
         y="155.67999"
         id="tspan146">k</tspan><tspan
         class="cls-4"
         x="307.62"
         y="155.67999"
         id="tspan148">s and t</tspan><tspan
         class="cls-3"
         x="383.5"
         y="155.67999"
         id="tspan150">r</tspan><tspan
         class="cls-9"
         x="390.89999"
         y="155.67999"
         id="tspan152">ails</tspan><tspan
         class="cls-17"
         x="0"
         y="207.57001"
         id="tspan154">Retail</tspan><tspan
         class="cls-4"
         x="66.910004"
         y="207.57001"
         xml:space="preserve"
         id="tspan156"> - </tspan><tspan
         class="cls-11"
         x="88.959999"
         y="207.57001"
         id="tspan158">A</tspan><tspan
         class="cls-3"
         x="104.35"
         y="207.57001"
         id="tspan160">cc</tspan><tspan
         class="cls-4"
         x="128.77"
         y="207.57001"
         id="tspan162">ess</tspan><tspan
         class="cls-6"
         x="169.32001"
         y="207.57001"
         id="tspan164">t</tspan><tspan
         class="cls-14"
         x="177.67"
         y="207.57001"
         id="tspan166">o shopping</tspan><tspan
         class="cls-3"
         x="310.67999"
         y="207.57001"
         id="tspan168">c</tspan><tspan
         class="cls-4"
         x="322.89001"
         y="207.57001"
         id="tspan170">en</tspan><tspan
         class="cls-6"
         x="351.34"
         y="207.57001"
         id="tspan172">t</tspan><tspan
         class="cls-4"
         x="359.69"
         y="207.57001"
         id="tspan174">ers</tspan><tspan
         class="cls-18"
         x="0"
         y="259.47"
         id="tspan176">T</tspan><tspan
         class="cls-27"
         x="13.2"
         y="259.47"
         id="tspan178">r</tspan><tspan
         class="cls-17"
         x="21.57"
         y="259.47"
         id="tspan180">ansit</tspan><tspan
         class="cls-4"
         x="78.449997"
         y="259.47"
         xml:space="preserve"
         id="tspan182"> - </tspan><tspan
         class="cls-5"
         x="100.51"
         y="259.47"
         id="tspan184">A</tspan><tspan
         class="cls-3"
         x="115.9"
         y="259.47"
         id="tspan186">cc</tspan><tspan
         class="cls-4"
         x="140.32001"
         y="259.47"
         id="tspan188">ess</tspan><tspan
         class="cls-8"
         x="180.87"
         y="259.47"
         id="tspan190">t</tspan><tspan
         class="cls-4"
         x="189.22"
         y="259.47"
         id="tspan192">o major t</tspan><tspan
         class="cls-3"
         x="290.44"
         y="259.47"
         id="tspan194">r</tspan><tspan
         class="cls-9"
         x="297.85001"
         y="259.47"
         id="tspan196">ansit hubs</tspan></text>
    <text
       class="cls-53"
       transform="translate(43.9,373.63)"
       text-anchor="start"
       id="text212"><tspan
         x="0"
         y="0"
         id="tspan200">{{nh}}</tspan><tspan
         x="0"
         y="51.889999"
         id="tspan202">{{op}}</tspan><tspan
         x="0"
         y="103.79"
         id="tspan204">{{es}}</tspan><tspan
         x="0"
         y="155.67999"
         id="tspan206">{{rec}}</tspan><tspan
         x="0"
         y="207.57001"
         id="tspan208">{{ret}}</tspan><tspan
         x="0"
         y="259.47"
         id="tspan210">{{tr}}</tspan></text>
  </g>
  <rect
     class="cls-33"
     x="44.45"
     y="746.8"
     width="729.24"
     height="270.11"
     id="rect216" />
  <rect
     class="cls-43"
     x="44"
     y="712.24"
     width="729.24"
     height="33.14"
     id="rect218" />
  <text
     class="cls-20"
     transform="translate(58.67 734.56)"
     id="text236"><tspan
       class="cls-70"
       x="0"
       y="0"
       id="tspan220">INFRA</tspan><tspan
       class="cls-30"
       x="67.46"
       y="0"
       id="tspan222">S</tspan><tspan
       class="cls-70"
       x="80.43"
       y="0"
       id="tspan224">TRU</tspan><tspan
       class="cls-42"
       x="123.71"
       y="0"
       id="tspan226">C</tspan><tspan
       class="cls-74"
       x="138.35"
       y="0"
       id="tspan228">T</tspan><tspan
       class="cls-70"
       x="150.74"
       y="0"
       id="tspan230">URE MILE</tspan><tspan
       class="cls-61"
       x="256.11"
       y="0"
       id="tspan232">A</tspan><tspan
       class="cls-70"
       x="270.86"
       y="0"
       id="tspan234">GE</tspan></text>
  <text
     class="cls-44"
     id="text268"
     x="218.83"
     y="799.84998"><tspan
       class="cls-17"
       id="tspan250"><tspan
         x="218.83"
         y="799.84998"
         id="tspan238">Miles of high-stress roads</tspan></tspan><tspan
       class="cls-4"
       id="tspan266"><tspan
         x="218.83"
         y="829.84998"
         id="tspan252">Roads lacking adequa</tspan><tspan
         class="cls-57"
         x="467.04001"
         y="829.84998"
         id="tspan254">t</tspan><tspan
         x="475.38998"
         y="829.84998"
         id="tspan256">e bi</tspan><tspan
         class="cls-35"
         x="517.02002"
         y="829.84998"
         id="tspan258">k</tspan><tspan
         x="529.21002"
         y="829.84998"
         id="tspan260">e inf</tspan><tspan
         class="cls-50"
         x="577.34998"
         y="829.84998"
         id="tspan262">r</tspan><tspan
         x="584.75"
         y="829.84998"
         id="tspan264">astructure</tspan></tspan></text>
  <text
     class="cls-37"
     id="text272"
     x="59.0"
     y="829.07001"
     text-anchor="start">{{hsm}}</text>
  <g
     id="g340"
     transform="translate(16)">
    <text
       class="cls-44"
       transform="translate(202.83,919.57)"
       id="text334"><tspan
         class="cls-17"
         x="0"
         y="0"
         id="tspan274">Miles of l</tspan><tspan
         class="cls-15"
         x="101.91"
         y="0"
         id="tspan276">o</tspan><tspan
         class="cls-18"
         x="116.17"
         y="0"
         id="tspan278">w</tspan><tspan
         class="cls-17"
         x="136.55"
         y="0"
         id="tspan280">-st</tspan><tspan
         class="cls-19"
         x="166.39999"
         y="0"
         id="tspan282">r</tspan><tspan
         class="cls-17"
         x="175.56"
         y="0"
         id="tspan284">ess</tspan><tspan
         class="cls-29"
         x="218.87"
         y="0"
         id="tspan286">r</tspan><tspan
         class="cls-26"
         x="228.02"
         y="0"
         id="tspan288">o</tspan><tspan
         class="cls-16"
         x="242.50999"
         y="0"
         id="tspan290">ads and</tspan><tspan
         class="cls-26"
         x="340.95001"
         y="0"
         id="tspan292">p</tspan><tspan
         class="cls-17"
         x="356.51999"
         y="0"
         id="tspan294">aths</tspan><tspan
         class="cls-4"
         x="406.98001"
         y="0"
         id="tspan296" /><tspan
         class="cls-4"
         id="tspan316"><tspan
           x="0"
           y="30"
           id="tspan298">Roads where</tspan><tspan
           class="cls-69"
           x="152.44"
           y="30"
           id="tspan300">c</tspan><tspan
           x="164.47"
           y="30"
           id="tspan302">ars and bi</tspan><tspan
           class="cls-35"
           x="274.06"
           y="30"
           id="tspan304">k</tspan><tspan
           x="286.25"
           y="30"
           id="tspan306">es are sepa</tspan><tspan
           class="cls-52"
           x="410.35999"
           y="30"
           id="tspan308">r</tspan><tspan
           x="417.76001"
           y="30"
           id="tspan310">a</tspan><tspan
           class="cls-60"
           x="430.79999"
           y="30"
           id="tspan312">t</tspan><tspan
           x="439.14999"
           y="30"
           id="tspan314">ed</tspan></tspan><tspan
         class="cls-4"
         id="tspan332"><tspan
           x="0"
           y="60"
           id="tspan318">or t</tspan><tspan
           class="cls-52"
           x="37.540001"
           y="60"
           id="tspan320">r</tspan><tspan
           class="cls-58"
           x="44.939999"
           y="60"
           id="tspan322">a</tspan><tspan
           class="cls-2"
           x="57.360001"
           y="60"
           id="tspan324">v</tspan><tspan
           x="67.849998"
           y="60"
           id="tspan326">el speeds are l</tspan><tspan
           class="cls-2"
           x="226.84"
           y="60"
           id="tspan328">o</tspan><tspan
           class="cls-31"
           x="240.53"
           y="60"
           id="tspan330">w</tspan></tspan></text>
    <text
       class="cls-38"
       transform="translate(41.95,954.03)"
       text-anchor="start"
       id="text338">{{lsm}}</text>
  </g>
  <line
     class="cls-56"
     x1="618.46"
     y1="334.93"
     x2="618.46"
     y2="642.59"
     id="line342" />
  <text
     class="cls-47"
     transform="translate(695.2 375.9)"
     text-anchor="middle"
     id="text360">Overall</text>
  <text
     class="cls-47"
     transform="translate(695.2 405.9)"
     text-anchor="middle"
     id="text170">Score</text>
  <text
     class="cls-54"
     transform="translate(695.2 494.11)"
     text-anchor="middle"
     id="text364">{{bnasc}}</text>
  <line
     class="cls-56"
     x1="72.05"
     y1="871.17"
     x2="727.69"
     y2="869.13"
     id="line366" />
  <text
     class="cls-54"
     transform="translate(695.2 616.53)"
     text-anchor="middle"
     id="text370">100</text>
  <text
     class="cls-46"
     text-anchor="middle"
     id="text374"
     lengthAdjust="spacing"
     x="406.26001"
     y="138.19">{{ci}}</text>
  <text
     class="cls-12"
     text-anchor="middle"
     id="text378"
     x="406.26001"
     y="180.56"><tspan
       x="406.26001"
       y="180.56"
       id="tspan376">{{st}}, {{co}}</tspan></text>
  <text
     class="cls-7"
     text-anchor="middle"
     id="text382"
     x="406.26001"
     y="212.92999"><tspan
       x="406.26001"
       y="212.92999"
       id="tspan380">{{po}}</tspan></text>
  <line
     class="cls-55"
     x1="614.96002"
     y1="221.92999"
     x2="614.96002"
     y2="75.25"
     id="line384" />
  <text
     class="cls-23"
     transform="translate(695.2 534.4)"
     text-anchor="middle"
     id="text388">out of</text>
  <path
     d="m 35.490962,200.51805 c 0,1.99446 0.171563,2.63068 1.92297,2.63068 h 0.886424 c 1.737111,0 1.922969,-0.64337 1.922969,-2.63068 v -6.23358 h 3.524254 v 6.82691 c 0,4.28201 -1.015095,5.51157 -4.961114,5.51157 h -2.037354 c -3.903126,0 -4.961114,-1.22956 -4.961114,-5.51157 V 182.0318 c 0,-4.282 1.057988,-5.51156 4.961114,-5.51156 h 2.037354 c 3.946019,0 4.961114,1.22956 4.961114,5.51156 v 5.55445 h -3.524254 v -4.96112 c 0,-1.99446 -0.171563,-2.63068 -1.922969,-2.63068 h -0.915014 c -1.737111,0 -1.92297,0.64337 -1.92297,2.63068 z"
     id="path390"
     style="stroke-width:0.714858" />
  <path
     d="m 45.963645,176.72755 h 3.731563 v 29.68094 h -3.731563 z"
     id="path392"
     style="stroke-width:0.714858" />
  <path
     d="m 54.627733,206.40849 v -26.20673 h -3.266905 v -3.47421 h 10.222479 v 3.47421 h -3.224013 v 26.20673 z"
     id="path394"
     style="stroke-width:0.714858" />
  <path
     d="m 67.273597,206.40849 v -10.00803 l -4.660894,-19.67291 h 3.774455 l 1.565547,6.99133 c 0.62907,2.68786 1.093734,5.40432 1.401125,8.14224 0.328845,-2.73792 0.79351,-5.45438 1.401125,-8.14224 l 1.565548,-6.99133 h 3.309787 l -4.62514,19.67291 v 10.00803 z"
     id="path396"
     style="stroke-width:0.714858" />
  <path
     d="m 95.467623,201.19716 c -0.04292,1.75856 0.171571,3.51711 0.643375,5.21133 h -3.903132 c -0.428905,-0.95791 -0.464656,-2.75935 -0.464656,-4.61799 v -5.68313 c 0,-2.0302 -0.335976,-2.96667 -2.208905,-2.96667 h -2.502017 v 13.27495 H 83.300727 V 176.7347 h 7.20578 c 3.946023,0 4.961116,1.22955 4.961116,5.51156 v 4.02465 c 0,3.09534 -0.550445,4.58224 -2.373327,5.11838 1.822882,0.59334 2.373327,2.08025 2.373327,5.21133 v 4.5894 z m -3.731562,-18.35757 c 0,-1.99447 -0.128671,-2.63067 -1.922959,-2.63067 H 87.018 v 9.45758 h 2.795102 c 1.737092,0 1.922959,-0.64338 1.922959,-2.63069 z"
     id="path398"
     style="stroke-width:0.714858" />
  <path
     d="m 106.33349,201.87628 h -4.80386 l -0.64337,4.53937 h -3.31694 l 4.0318,-29.68095 h 5.11839 l 3.97461,29.68095 h -3.72441 z m -4.3249,-3.47421 h 3.86024 l -0.46466,-3.60289 c -0.7649,-5.94048 -1.18667,-10.98023 -1.48691,-14.96914 -0.30024,3.98177 -0.67911,9.02866 -1.44401,14.96914 z"
     id="path400"
     style="stroke-width:0.714858" />
  <path
     d="m 113.35339,206.40849 v -26.20673 h -3.2669 v -3.47421 h 10.20818 v 3.47421 h -3.20256 v 26.20673 z"
     id="path402"
     style="stroke-width:0.714858" />
  <path
     d="m 121.99604,176.72755 h 3.73872 v 29.68094 h -3.73872 z"
     id="path404"
     style="stroke-width:0.714858" />
  <path
     d="m 132.17563,189.24473 c -0.42176,-1.86579 -0.67911,-3.60289 -0.92931,-5.34715 0.0429,1.74426 0.0858,3.48136 0.0858,5.44008 v 17.08513 h -3.21687 v -29.69524 h 4.70376 l 3.52427,15.85557 c 0.42177,1.86578 0.722,3.60289 0.95791,5.33999 -0.0429,-1.7371 -0.17157,-3.47421 -0.17157,-5.38288 V 176.7204 h 3.26692 v 29.68093 h -4.22483 l -3.98891,-17.16375 z"
     id="path406"
     style="stroke-width:0.714858" />
  <path
     d="m 148.78896,189.95958 h 5.85469 v 11.1518 c 0,4.28201 -1.0151,5.51157 -4.96112,5.51157 h -2.0302 c -3.90313,0 -4.96113,-1.22956 -4.96113,-5.51157 V 182.0318 c 0,-4.282 1.058,-5.51156 4.96113,-5.51156 h 2.0302 c 3.94602,0 4.96112,1.22956 4.96112,5.51156 v 5.0469 h -3.52426 v -4.45357 c 0,-1.99446 -0.17156,-2.63068 -1.92297,-2.63068 h -0.89357 c -1.7371,0 -1.92298,0.64337 -1.92298,2.63068 v 17.89292 c 0,1.99446 0.17158,2.63068 1.92298,2.63068 h 0.89357 c 1.73711,0 1.92297,-0.64337 1.92297,-2.63068 v -7.08425 h -2.33043 z"
     id="path408"
     style="stroke-width:0.714858" />
  <path
     d="m 164.60164,198.43781 c 0,-2.66642 -0.64339,-3.47421 -3.6029,-6.14779 -3.43132,-3.09534 -4.32489,-4.41068 -4.32489,-8.32096 v -1.93726 c 0,-4.282 1.01509,-5.51156 4.96112,-5.51156 h 1.7371 c 3.94603,0 4.96113,1.22956 4.96113,5.51156 v 4.62513 h -3.52425 v -4.0318 c 0,-1.99446 -0.12868,-2.63068 -1.92298,-2.63068 h -0.64337 c -1.7371,0 -1.92298,0.64337 -1.92298,2.55919 v 1.40113 c 0,2.66643 0.64338,3.52425 3.60289,6.19068 3.43132,3.09533 4.36779,4.36778 4.36779,8.27092 v 2.71646 c 0,4.282 -1.05799,5.51156 -4.96111,5.51156 h -1.75141 c -3.90312,0 -4.91824,-1.22956 -4.91824,-5.51156 v -5.48296 h 3.47421 v 4.87532 c 0,1.99446 0.12869,2.63069 1.92298,2.63069 h 0.64338 c 1.7371,0 1.92297,-0.64337 1.92297,-2.63069 l -0.0214,-2.08023 z"
     id="path410"
     style="stroke-width:0.714858" />
  <path
     class="cls-65"
     d="m 75.008783,133.30747 v 8.92057 c 0,2.05344 1.66011,3.72022 3.713572,3.72022 H 115.258 c 2.05346,0 3.72024,-1.66678 3.72024,-3.72022 v 0 -8.92057 z m 30.055237,5.28033 c -4.52694,4.26693 -11.594049,4.26693 -16.121024,0 l -0.11337,-0.10011 1.280087,-1.28006 0.106627,0.0999 c 3.820242,3.57356 9.75396,3.57356 13.5742,0 l 0.10664,-0.0999 1.29339,1.28673 -0.11337,0.0866 z"
     id="path412"
     style="stroke-width:0.666708" />
  <path
     class="cls-51"
     d="M 115.26467,99.885347 H 78.729028 c -2.053464,0 -3.720245,1.666783 -3.720245,3.720223 0,0 0,0 0,0 v 27.84846 h 9.253921 c -3.333551,-1.48677 -4.833634,-5.40036 -3.346878,-8.74056 1.486756,-3.33355 5.400352,-4.83367 8.740549,-3.34689 0.119945,0.0533 0.233359,0.10663 0.346685,0.16661 l 1.946793,-3.14019 -0.600035,-1.79346 c -0.433356,-0.0934 -0.686707,0 -1.366758,-0.0934 -0.680034,-0.0934 -0.766705,-0.30003 -0.62669,-0.66674 0.139998,-0.36666 0.893376,-0.20665 1.566755,-0.13999 0.673388,0.0666 1.946794,-0.18668 2.546846,-0.20667 0.493356,-0.007 0.940039,0.30003 1.113399,0.76671 -0.300031,0.0401 -0.59338,0.0667 -0.893402,0.0667 -0.333349,-0.0267 -0.67337,0.0334 -0.973392,0.18 -0.11337,0.0401 -0.23336,0.0735 -0.346685,0.0999 l 0.446683,1.34675 h 10.160646 l -0.95339,-2.62017 h 3.55356 c 0.96674,0 1.7468,0.80006 1.7468,1.7668 0,0.96673 -0.80008,1.74677 -1.7668,1.74677 h -0.11994 v -0.9334 h 0.11337 c 0.45336,0 0.82672,-0.36002 0.83339,-0.81337 0,-0.45338 -0.36003,-0.82673 -0.81339,-0.8334 h -2.20015 l 1.72012,4.74697 c 0.57336,-0.16005 1.1734,-0.24002 1.77343,-0.24002 3.65357,0 6.62042,2.9602 6.62042,6.61377 0,2.62683 -1.55343,5.00698 -3.95359,6.06037 h 9.45394 v -27.84834 c 0,-2.05347 -1.66011,-3.720246 -3.71357,-3.720246 z"
     id="path414"
     style="stroke-width:0.666708" />
  <path
     class="cls-51"
     d="m 100.25705,125.40696 c 0,-2.62683 1.54676,-5.00032 3.94691,-6.06038 l -0.66671,-1.82012 -7.587131,8.03385 c -0.206687,0.21335 -0.4867,0.33335 -0.780058,0.33335 h -1.646754 c -0.180033,2.44683 -1.693452,4.59363 -3.940268,5.57369 h 14.627591 c -2.40682,-1.05341 -3.96024,-3.44022 -3.95358,-6.06705 z"
     id="path416"
     style="stroke-width:0.666708" />
  <path
     class="cls-51"
     d="m 90.089731,121.21337 -2.306797,3.71358 h 4.373615 c -0.106627,-1.22678 -0.646716,-2.37349 -1.513446,-3.24022 -0.173351,-0.17336 -0.353349,-0.3267 -0.553372,-0.46669 z"
     id="path418"
     style="stroke-width:0.666708" />
  <path
     class="cls-51"
     d="m 90.816463,120.04661 c 1.573427,1.14674 2.566819,2.93354 2.706844,4.88034 h 1.240061 l -2.420149,-7.34047 z"
     id="path420"
     style="stroke-width:0.666708" />
  <path
     class="cls-51"
     d="m 83.209313,121.68006 c -2.053464,2.05347 -2.053464,5.38035 0,7.43379 2.053456,2.05349 5.380326,2.05349 7.43379,0 0.873402,-0.87338 1.406766,-2.02011 1.520092,-3.25352 h -4.373606 c -0.260014,0.50002 -0.873385,0.70003 -1.380077,0.44002 -0.500027,-0.26001 -0.700051,-0.87339 -0.440019,-1.38009 0.179997,-0.34669 0.533372,-0.56002 0.926711,-0.55336 h 0.113379 l 2.273478,-3.66024 c -0.733387,-0.36668 -1.540118,-0.56002 -2.353486,-0.56002 -1.39343,0 -2.733516,0.54669 -3.71358,1.53342 z"
     id="path422"
     style="stroke-width:0.666708" />
  <path
     class="cls-51"
     d="m 112.13113,125.40696 c 0,-2.90686 -2.35346,-5.26032 -5.26032,-5.26032 -0.44003,0 -0.8734,0.0532 -1.30009,0.1666 l 1.49343,4.08693 c 0.56003,0.0866 0.93339,0.61338 0.84673,1.16676 -0.0867,0.56001 -0.61339,0.93339 -1.16675,0.84671 -0.56003,-0.0867 -0.93339,-0.61338 -0.84672,-1.16673 0.0334,-0.20667 0.12669,-0.40003 0.27336,-0.54671 l -1.49343,-4.07359 c -0.56671,0.26001 -1.08007,0.62005 -1.51345,1.06007 -2.05346,2.05346 -2.06011,5.38034 -0.007,7.4338 2.05346,2.05347 5.38034,2.06014 7.43381,0.007 0.98673,-0.98674 1.54676,-2.32683 1.54676,-3.72024 v 0 z"
     id="path424"
     style="stroke-width:0.666708" />
  <polygon
     class="cls-51"
     points="84.77,139.37 70.29,139.37 74.07,150.82 74.07,150.83 "
     id="polygon426"
     transform="matrix(0.66670893,0,0,0.66670893,46.266964,24.007206)" />
  <path
     class="cls-78"
     d="m 45.160215,167.04582 c -0.69313,0.62929 -1.605152,0.96674 -2.544532,0.93939 -0.957627,0.0639 -1.887887,-0.31921 -2.526295,-1.03971 v 4.74251 h -2.617503 v -14.29136 h 2.526295 v 0.97585 c 0.647537,-0.75697 1.614283,-1.15826 2.608385,-1.09442 0.939379,-0.0274 1.851402,0.3101 2.544532,0.93938 1.039707,1.03971 1.057944,2.82727 1.057944,4.38682 0,1.55956 -0.01824,3.36536 -1.057944,4.41418 m -3.310635,-7.39649 c -1.568678,0 -1.760203,1.28595 -1.760203,2.99144 0,1.70546 0.200644,3.00966 1.760203,3.00966 1.559561,0 1.760205,-1.29507 1.760205,-3.00966 0,-1.7146 -0.200644,-2.99144 -1.760205,-2.99144"
     id="path428"
     style="stroke-width:0.912018" />
  <path
     class="cls-78"
     d="m 50.021292,163.46158 c 0,1.34067 0.820813,2.32566 2.280046,2.32566 0.902904,0.0547 1.769323,-0.30097 2.362136,-0.98499 l 1.586916,1.54132 c -1.00322,1.12178 -2.462453,1.72372 -3.96729,1.63252 -2.453334,0 -4.833708,-1.12178 -4.833708,-5.35357 0,-3.41096 1.842283,-5.33532 4.560103,-5.33532 2.909346,0 4.550986,2.125 4.550986,4.98875 v 1.16739 h -6.539189 z m 3.730159,-2.8911 c -0.474249,-0.96675 -1.641639,-1.35892 -2.608374,-0.88467 -0.383051,0.19153 -0.693141,0.50162 -0.884667,0.88467 -0.155039,0.35568 -0.237118,0.73873 -0.237118,1.12179 h 3.967289 c 0,-0.38306 -0.09119,-0.76611 -0.23713,-1.12179"
     id="path430"
     style="stroke-width:0.912018" />
  <path
     class="cls-78"
     d="m 65.808361,166.70837 c -1.824035,1.70548 -4.660421,1.70548 -6.484467,0 -0.939379,-0.98497 -1.176497,-2.1706 -1.176497,-4.08585 0,-1.91524 0.237118,-3.07351 1.176497,-4.04938 1.824046,-1.71459 4.660432,-1.71459 6.484467,0 0.93939,0.97587 1.185627,2.1615 1.185627,4.04938 0,1.88788 -0.246237,3.09175 -1.185627,4.08585 m -2.042928,-6.60302 c -0.328316,-0.31921 -0.766091,-0.48338 -1.222102,-0.46513 -0.446893,-0.0182 -0.884655,0.14592 -1.203865,0.46513 -0.519853,0.55633 -0.583695,1.44099 -0.583695,2.5263 0,1.08529 0.06389,2.00644 0.601932,2.54452 0.319209,0.31921 0.756983,0.48339 1.203865,0.46514 0.456012,0.0274 0.902904,-0.14593 1.222114,-0.46514 0.53809,-0.53808 0.601932,-1.45923 0.601932,-2.54452 0,-1.08531 -0.06389,-1.98821 -0.601932,-2.5263"
     id="path432"
     style="stroke-width:0.912018" />
  <path
     class="cls-78"
     d="m 76.396916,167.04582 c -0.702246,0.62929 -1.60515,0.96674 -2.544528,0.93939 -0.957632,0.0639 -1.887887,-0.31921 -2.5263,-1.03971 v 4.74251 h -2.608381 v -14.29136 h 2.526302 v 0.97585 c 0.647527,-0.75697 1.614273,-1.15826 2.608379,-1.09442 0.939378,-0.0274 1.851405,0.3101 2.544528,0.93938 1.039711,1.03971 1.057948,2.82727 1.057948,4.38682 0,1.55956 -0.01825,3.36536 -1.057948,4.41418 m -3.310634,-7.39649 c -1.568667,0 -1.760194,1.28595 -1.760194,2.99144 0,1.70546 0.200649,3.00966 1.760194,3.00966 1.559563,0 1.760203,-1.29507 1.760203,-3.00966 0,-1.7146 -0.20064,-2.99144 -1.760203,-2.99144"
     id="path434"
     style="stroke-width:0.912018" />
  <path
     class="cls-78"
     d="m 82.09706,167.87576 c -2.152379,0 -3.046151,-1.50484 -3.046151,-2.99143 v -11.29081 h 2.60837 v 11.12664 c 0,0.6293 0.255369,0.94851 0.92115,0.94851 h 1.00322 v 2.20709 z"
     id="path436"
     style="stroke-width:0.912018" />
  <path
     class="cls-78"
     d="m 86.912519,163.46158 c 0,1.34067 0.820826,2.32566 2.280055,2.32566 0.902904,0.0547 1.778439,-0.30097 2.371256,-0.98499 l 1.586913,1.54132 c -1.00322,1.12178 -2.471581,1.7146 -3.967283,1.63252 -2.47159,0 -4.833714,-1.12178 -4.833714,-5.35357 0,-3.41096 1.842282,-5.33532 4.550977,-5.33532 2.909344,0 4.550985,2.125 4.550985,4.98875 v 1.16739 h -6.539189 z m 3.73017,-2.8911 c -0.483369,-0.96675 -1.650756,-1.35892 -2.608388,-0.87555 -0.383035,0.19153 -0.684009,0.4925 -0.875536,0.87555 -0.155035,0.35568 -0.237114,0.73873 -0.237114,1.12179 h 3.967283 c 0,-0.38306 -0.09118,-0.76611 -0.237131,-1.12179"
     id="path438"
     style="stroke-width:0.912018" />
  <path
     class="cls-77"
     d="m 98.16686,161.23626 v 6.6395 h -2.115887 v -6.6395 h -0.884667 v -1.61429 h 0.884667 v -1.05794 c -0.0639,-1.27683 0.912009,-2.36213 2.188847,-2.4351 0.0912,0 0.19152,0 0.28272,0 h 1.20387 v 1.79669 H 98.9056 c -0.50162,0 -0.73874,0.28272 -0.73874,0.77521 v 0.93026 h 1.56867 v 1.61428 h -1.58691 z"
     id="path440"
     style="stroke-width:0.912018" />
  <path
     class="cls-77"
     d="m 106.51185,166.92726 c -1.47749,1.38627 -3.78488,1.38627 -5.26237,0 -0.76608,-0.82082 -0.96673,-1.7602 -0.96673,-3.31063 0,-1.55044 0.19152,-2.49894 0.96673,-3.2924 1.47749,-1.39539 3.78488,-1.39539 5.26237,0 0.76609,0.79346 0.96674,1.7602 0.96674,3.2924 0,1.53219 -0.20065,2.50805 -0.96674,3.31063 m -1.63252,-5.36268 c -0.26449,-0.25537 -0.62018,-0.39216 -0.99411,-0.37393 -0.3648,-0.0182 -0.72049,0.11856 -0.97586,0.37393 -0.43776,0.43777 -0.49249,1.1765 -0.49249,2.04293 0,0.86642 0.0457,1.63251 0.49249,2.07029 0.26449,0.25536 0.62018,0.39216 0.97586,0.37393 0.35569,0.0182 0.70227,-0.10942 0.96675,-0.3557 0.43776,-0.43776 0.49249,-1.19474 0.49249,-2.07028 0,-0.87554 -0.0457,-1.63253 -0.49249,-2.04293"
     id="path442"
     style="stroke-width:0.912018" />
  <path
     class="cls-77"
     d="m 113.49792,161.69227 c -0.28273,-0.32834 -0.69313,-0.51985 -1.1309,-0.50162 -0.64755,0 -1.36803,0.48336 -1.36803,1.56868 v 5.12555 h -2.11589 v -8.50003 h 2.07029 v 0.82082 c 0.54721,-0.59282 1.32243,-0.93026 2.13412,-0.91203 0.75698,-0.0365 1.4866,0.26449 2.00646,0.82083 l -1.59605,1.59603 z"
     id="path444"
     style="stroke-width:0.912018" />
  <path
     class="cls-78"
     d="m 124.31449,167.04582 c -0.69314,0.62929 -1.60516,0.96674 -2.54454,0.93939 -0.99411,0.0639 -1.96084,-0.34657 -2.60838,-1.10355 v 0.97587 h -2.52629 v -14.29137 h 2.60837 v 4.76987 c 0.63842,-0.7205 1.56868,-1.10356 2.5263,-1.03971 0.93938,-0.0274 1.8514,0.31009 2.54454,0.93938 1.04883,1.03971 1.05794,2.82727 1.05794,4.38682 0,1.55956 0,3.36536 -1.05794,4.41418 m -3.31063,-7.39648 c -1.56869,0 -1.76933,1.28594 -1.76933,2.99143 0,1.70548 0.20064,3.00966 1.76933,3.00966 1.56867,0 1.76018,-1.29507 1.76018,-3.00966 0,-1.7146 -0.20064,-2.99143 -1.76018,-2.99143"
     id="path446"
     style="stroke-width:0.912018" />
  <path
     class="cls-78"
     d="m 127.79842,153.51144 h 2.67221 v 2.12501 h -2.67221 z m 0.0365,3.91256 h 2.60838 v 10.45176 h -2.60838 z"
     id="path448"
     style="stroke-width:0.912018" />
  <polygon
     class="cls-78"
     points="237.9,132.91 234.37,132.91 231.55,128.13 230.35,129.5 230.35,132.91 227.48,132.91 227.48,117.25 230.35,117.25 230.35,126.13 234.15,121.45 237.6,121.45 233.51,126.07 "
     id="polygon450"
     transform="matrix(0.9120206,0,0,0.9120206,-74.132078,46.6591)" />
  <path
     class="cls-78"
     d="m 146.12091,163.46158 c 0,1.34067 0.82081,2.32566 2.28916,2.32566 0.89379,0.0547 1.76932,-0.31009 2.36214,-0.98499 l 1.58691,1.54132 c -1.01234,1.12178 -2.47157,1.72372 -3.9764,1.63252 -2.45334,0 -4.83372,-1.12178 -4.83372,-5.35357 0,-3.41096 1.84229,-5.33532 4.56011,-5.33532 2.90935,0 4.55097,2.125 4.55097,4.98875 v 1.16739 h -6.53917 z m 3.73015,-2.8911 c -0.47424,-0.96675 -1.64163,-1.35892 -2.60837,-0.88467 -0.38305,0.19153 -0.69314,0.50162 -0.88467,0.88467 -0.15503,0.35568 -0.23711,0.73873 -0.23711,1.12179 h 3.96728 c 0,-0.38306 -0.0912,-0.76611 -0.23713,-1.12179"
     id="path452"
     style="stroke-width:0.912018" />
  <path
     class="cls-78"
     d="m 158.63383,167.99432 c -1.63253,0 -3.12823,-0.1824 -4.45066,-1.50483 l 1.72372,-1.70548 c 0.75697,0.69314 1.76019,1.04882 2.78166,0.98498 0.90289,0 1.84227,-0.30096 1.84227,-1.0853 0,-0.51985 -0.28273,-0.88467 -1.10353,-0.96675 l -1.63252,-0.15503 c -1.87877,-0.18241 -3.04615,-1.00323 -3.04615,-2.92759 0,-2.17061 1.91524,-3.32888 4.03113,-3.32888 1.63252,0 2.99142,0.28274 3.98552,1.22211 l -1.60515,1.63251 c -0.60193,-0.54721 -1.52307,-0.70225 -2.42597,-0.70225 -1.03971,0 -1.48659,0.48337 -1.48659,1.00322 0,0.38305 0.15503,0.82082 1.0853,0.9029 l 1.63251,0.16417 c 2.07029,0.20064 3.11,1.30419 3.11,3.06438 0,2.30741 -1.96085,3.41097 -4.43243,3.41097"
     id="path454"
     style="stroke-width:0.912018" />
  <path
     style="fill:#000000;stroke-width:0.999997"
     d="M 0.53999922,73.410003 816.25,75.249999"
     id="path1" />
</svg>
