<?xml version="1.0" encoding="UTF-8" standalone="no"?>
<svg
   id="svg1034"
   width="8.5in"
   height="11in"
   version="1.1"
   sodipodi:docname="template-scorecard-pg1-v23.4.svg"
   inkscape:version="1.3.2 (091e20e, 2023-11-25)"
   xmlns:inkscape="http://www.inkscape.org/namespaces/inkscape"
   xmlns:sodipodi="http://sodipodi.sourceforge.net/DTD/sodipodi-0.dtd"
   xmlns="http://www.w3.org/2000/svg"
   xmlns:svg="http://www.w3.org/2000/svg">
  <sodipodi:namedview
     id="namedview1"
     pagecolor="#ffffff"
     bordercolor="#000000"
     borderopacity="0.25"
     inkscape:showpageshadow="2"
     inkscape:pageopacity="0.0"
     inkscape:pagecheckerboard="0"
     inkscape:deskcolor="#d1d1d1"
     inkscape:document-units="in"
     inkscape:zoom="0.94985125"
     inkscape:cx="472.1792"
     inkscape:cy="212.66488"
     inkscape:window-width="1440"
     inkscape:window-height="847"
     inkscape:window-x="0"
     inkscape:window-y="25"
     inkscape:window-maximized="1"
     inkscape:current-layer="svg1034" />
  <defs
     id="defs4">
    <style
       id="style2">.cls-1,.cls-2{letter-spacing:-.01em;}.cls-1,.cls-3,.cls-4,.cls-5,.cls-6,.cls-7,.cls-8,.cls-9,.cls-10,.cls-11,.cls-12,.cls-13,.cls-14{font-weight:200;}.cls-1,.cls-3,.cls-4,.cls-5,.cls-6,.cls-8,.cls-9,.cls-10,.cls-11,.cls-13,.cls-14{font-family:Montserrat-ExtraLight, Montserrat;}.cls-15{letter-spacing:-.01em;}.cls-15,.cls-16,.cls-17,.cls-18,.cls-19,.cls-20,.cls-21,.cls-22,.cls-23,.cls-24,.cls-25,.cls-26,.cls-27,.cls-28,.cls-29{font-family:Montserrat-Medium, Montserrat;font-weight:500;}.cls-30{letter-spacing:.19em;}.cls-16,.cls-31,.cls-9{letter-spacing:0em;}.cls-32{letter-spacing:.33em;}.cls-33,.cls-20,.cls-34{fill:#fff;}.cls-35{letter-spacing:-.02em;}.cls-36{letter-spacing:.18em;}.cls-18{letter-spacing:-.01em;}.cls-37{fill:#e1251b;}.cls-37,.cls-38{font-family:DharmaGothicE-Regular, 'Dharma Gothic E';font-size:60px;letter-spacing:.04em;}.cls-19,.cls-39{letter-spacing:-.01em;}.cls-40{letter-spacing:.18em;}.cls-41{letter-spacing:.34em;}.cls-42{letter-spacing:.19em;}.cls-20{font-size:16px;}.cls-20,.cls-34{isolation:isolate;}.cls-43{fill:#8b8a8d;}.cls-44,.cls-45,.cls-23,.cls-46,.cls-7,.cls-47,.cls-12{fill:#00263e;}.cls-44,.cls-23{font-size:23px;}.cls-48{letter-spacing:0em;}.cls-21{letter-spacing:.01em;}.cls-49{letter-spacing:.34em;}.cls-22{letter-spacing:0em;}.cls-3,.cls-50{letter-spacing:-.03em;}.cls-51{fill:#119fda;}.cls-52{letter-spacing:-.03em;}.cls-45{font-size:100px;}.cls-45,.cls-34,.cls-46,.cls-53,.cls-54{font-weight:700;}.cls-45,.cls-46,.cls-53,.cls-54{font-family:DharmaGothicE-Bold, 'Dharma Gothic E';}.cls-55{stroke:#8b8a8d;}.cls-55,.cls-56{fill:none;stroke-miterlimit:10;}.cls-57,.cls-8{letter-spacing:0em;}.cls-5{letter-spacing:-.03em;}.cls-34{font-family:Montserrat-Bold, Montserrat;font-size:24px;}.cls-24{letter-spacing:0em;}.cls-58{letter-spacing:-.03em;}.cls-59{letter-spacing:.33em;}.cls-6,.cls-60{letter-spacing:0em;}.cls-61{letter-spacing:.19em;}.cls-62{letter-spacing:0em;}.cls-46{font-size:61.8px;}.cls-25{letter-spacing:-.02em;}.cls-63{letter-spacing:-.02em;}.cls-64,.cls-53{fill:#009edb;}.cls-53{font-size:33px;letter-spacing:.04em;}.cls-65{fill:#e02726;}.cls-26,.cls-66{letter-spacing:0em;}.cls-7{font-size:29px;}.cls-7,.cls-12{font-family:DharmaGothicE-Thin, 'Dharma Gothic E';}.cls-67{letter-spacing:.19em;}.cls-68{fill:#df271c;}.cls-27{letter-spacing:-.05em;}.cls-69,.cls-13{letter-spacing:-.04em;}.cls-28{letter-spacing:-.02em;}.cls-38,.cls-54{fill:#00a0df;}.cls-10{letter-spacing:0em;}.cls-70{letter-spacing:.2em;}.cls-71{letter-spacing:-.02em;}.cls-72{letter-spacing:.17em;}.cls-11{letter-spacing:-.03em;}.cls-73{fill:#e6e7e8;}.cls-74{letter-spacing:.19em;}.cls-47{font-family:Montserrat-SemiBold, Montserrat;font-size:28px;font-weight:600;}.cls-29,.cls-75{letter-spacing:-.01em;}.cls-54{font-size:85px;}.cls-12{font-size:36.58px;}.cls-76{letter-spacing:.19em;}.cls-77{fill:#8a898c;}.cls-78{fill:#484846;}.cls-56{stroke:#e6e7e8;}.cls-79{letter-spacing:.13em;}.cls-80{letter-spacing:-.02em;}.cls-14{letter-spacing:0em;}</style>
  </defs>
  <rect
     x="0.54"
     y="51.73"
     width="815.16998"
     height="191.02"
     id="rect364"
     style="fill:#ffffff;stroke:#ffffff;stroke-width:0;stroke-linecap:square;stroke-miterlimit:4;stroke-dasharray:none" />
  <text
     class="cls-45"
     id="text8"
     x="666.03998"
     y="183.97"
     style="font-style:normal;font-variant:normal;font-weight:bold;font-stretch:normal;font-size:74.6667px;font-family:DharmaGothicE-Bold, 'Dharma Gothic E';-inkscape-font-specification:'DharmaGothicE-Bold, Dharma Gothic E, Bold';font-variant-ligatures:normal;font-variant-caps:normal;font-variant-numeric:normal;font-variant-east-asian:normal;fill:#00263e"><tspan
       x="666.03998"
       y="183.97"
       id="tspan6"
       style="font-style:normal;font-variant:normal;font-weight:bold;font-stretch:normal;font-size:74.6667px;font-family:DharmaGothicE-Bold, 'Dharma Gothic E';-inkscape-font-specification:'DharmaGothicE-Bold, Dharma Gothic E, Bold';font-variant-ligatures:normal;font-variant-caps:normal;font-variant-numeric:normal;font-variant-east-asian:normal">2023</tspan></text>
  <path
     id="header_bar"
     class="cls-73"
     d="M0,242.75H815.71v813.25H0V242.75Z" />
  <path
     id="header_bar-2"
     class="cls-68"
     d="M.54,51.73H816.25V0H.54V51.73Z" />
  <text
     class="cls-34"
     transform="translate(245.79 36.16)"
     id="text22"><tspan
       class="cls-49"
       x="0"
       y="0"
       id="tspan12">CITY S</tspan><tspan
       class="cls-32"
       x="127.08"
       y="0"
       id="tspan14">C</tspan><tspan
       class="cls-41"
       x="151.56"
       y="0"
       id="tspan16">ORE</tspan><tspan
       class="cls-59"
       x="228.91"
       y="0"
       id="tspan18">C</tspan><tspan
       class="cls-49"
       x="253.49"
       y="0"
       id="tspan20">ARD</tspan></text>
  <line
     class="cls-55"
     x1="201.14999"
     y1="220.09"
     x2="201.14999"
     y2="73.410004"
     id="line24" />
  <rect
     class="cls-33"
     x="44.22"
     y="314.58"
     width="729.24"
     height="359.07"
     id="rect26" />
  <rect
     class="cls-64"
     x="43.77"
     y="281.02"
     width="729.24"
     height="33.14"
     id="rect28" />
  <text
     class="cls-20"
     transform="translate(58.45 303.34)"
     id="text50"><tspan
       class="cls-70"
       x="0"
       y="0"
       id="tspan30">BI</tspan><tspan
       class="cls-76"
       x="23.47"
       y="0"
       id="tspan32">C</tspan><tspan
       class="cls-72"
       x="38.05"
       y="0"
       id="tspan34">Y</tspan><tspan
       class="cls-70"
       x="51.12"
       y="0"
       id="tspan36">CLE NE</tspan><tspan
       class="cls-67"
       x="130.13"
       y="0"
       id="tspan38">T</tspan><tspan
       class="cls-36"
       x="142.59"
       y="0"
       id="tspan40">W</tspan><tspan
       class="cls-70"
       x="163.46"
       y="0"
       id="tspan42">ORK ANA</tspan><tspan
       class="cls-79"
       x="263.15"
       y="0"
       id="tspan44">L</tspan><tspan
       class="cls-40"
       x="274.69"
       y="0"
       id="tspan46">Y</tspan><tspan
       class="cls-70"
       x="288"
       y="0"
       id="tspan48">SIS</tspan></text>
  <g
     id="g214"
     transform="translate(16)">
    <text
       class="cls-44"
       transform="translate(104.68,370.63)"
       id="text198"><tspan
         class="cls-29"
         x="0"
         y="0"
         id="tspan52">P</tspan><tspan
         class="cls-17"
         x="16.33"
         y="0"
         id="tspan54">eople</tspan><tspan
         class="cls-4"
         x="81.190002"
         y="0"
         xml:space="preserve"
         id="tspan56"> - </tspan><tspan
         class="cls-11"
         x="103.25"
         y="0"
         id="tspan58">A</tspan><tspan
         class="cls-3"
         x="118.63"
         y="0"
         id="tspan60">cc</tspan><tspan
         class="cls-4"
         x="143.06"
         y="0"
         id="tspan62">ess</tspan><tspan
         class="cls-8"
         x="183.61"
         y="0"
         id="tspan64">t</tspan><tspan
         class="cls-4"
         x="191.96001"
         y="0"
         id="tspan66">o where other people li</tspan><tspan
         class="cls-1"
         x="451.89999"
         y="0"
         id="tspan68">v</tspan><tspan
         class="cls-9"
         x="462.38"
         y="0"
         id="tspan70">e</tspan><tspan
         class="cls-17"
         x="0"
         y="51.889999"
         id="tspan72">Oppo</tspan><tspan
         class="cls-21"
         x="65.300003"
         y="51.889999"
         id="tspan74">r</tspan><tspan
         class="cls-17"
         x="75.07"
         y="51.889999"
         id="tspan76">tuni</tspan><tspan
         class="cls-24"
         x="122.24"
         y="51.889999"
         id="tspan78">t</tspan><tspan
         class="cls-17"
         x="131.53999"
         y="51.889999"
         id="tspan80">y</tspan><tspan
         class="cls-14"
         x="144.39"
         y="51.889999"
         xml:space="preserve"
         id="tspan82"> - </tspan><tspan
         class="cls-5"
         x="166.45"
         y="51.889999"
         id="tspan84">A</tspan><tspan
         class="cls-3"
         x="181.83"
         y="51.889999"
         id="tspan86">cc</tspan><tspan
         class="cls-4"
         x="206.25999"
         y="51.889999"
         id="tspan88">ess</tspan><tspan
         class="cls-6"
         x="246.81"
         y="51.889999"
         id="tspan90">t</tspan><tspan
         class="cls-14"
         x="255.16"
         y="51.889999"
         id="tspan92">o jobs and edu</tspan><tspan
         class="cls-13"
         x="422.37"
         y="51.889999"
         id="tspan94">c</tspan><tspan
         class="cls-4"
         x="434.39001"
         y="51.889999"
         id="tspan96">ation</tspan><tspan
         class="cls-28"
         x="0"
         y="103.79"
         id="tspan98">C</tspan><tspan
         class="cls-17"
         x="16.120001"
         y="103.79"
         id="tspan100">o</tspan><tspan
         class="cls-29"
         x="30.73"
         y="103.79"
         id="tspan102">r</tspan><tspan
         class="cls-17"
         x="39.880001"
         y="103.79"
         id="tspan104">e Se</tspan><tspan
         class="cls-21"
         x="88.5"
         y="103.79"
         id="tspan106">r</tspan><tspan
         class="cls-17"
         x="98.279999"
         y="103.79"
         id="tspan108">vi</tspan><tspan
         class="cls-22"
         x="117.55"
         y="103.79"
         id="tspan110">c</tspan><tspan
         class="cls-17"
         x="130.5"
         y="103.79"
         id="tspan112">es</tspan><tspan
         class="cls-4"
         x="156.10001"
         y="103.79"
         xml:space="preserve"
         id="tspan114"> - </tspan><tspan
         class="cls-5"
         x="178.16"
         y="103.79"
         id="tspan116">A</tspan><tspan
         class="cls-3"
         x="193.53999"
         y="103.79"
         id="tspan118">cc</tspan><tspan
         class="cls-4"
         x="217.97"
         y="103.79"
         id="tspan120">ess</tspan><tspan
         class="cls-8"
         x="258.51999"
         y="103.79"
         id="tspan122">t</tspan><tspan
         class="cls-4"
         x="266.87"
         y="103.79"
         id="tspan124">o basic needs</tspan><tspan
         class="cls-17"
         x="0"
         y="155.67999"
         id="tspan126">Rec</tspan><tspan
         class="cls-29"
         x="43.93"
         y="155.67999"
         id="tspan128">r</tspan><tspan
         class="cls-25"
         x="53.080002"
         y="155.67999"
         id="tspan130">e</tspan><tspan
         class="cls-17"
         x="66.809998"
         y="155.67999"
         id="tspan132">ation</tspan><tspan
         class="cls-14"
         x="126.77"
         y="155.67999"
         xml:space="preserve"
         id="tspan134"> - </tspan><tspan
         class="cls-5"
         x="148.83"
         y="155.67999"
         id="tspan136">A</tspan><tspan
         class="cls-3"
         x="164.22"
         y="155.67999"
         id="tspan138">cc</tspan><tspan
         class="cls-4"
         x="188.64"
         y="155.67999"
         id="tspan140">ess</tspan><tspan
         class="cls-6"
         x="229.19"
         y="155.67999"
         id="tspan142">t</tspan><tspan
         class="cls-14"
         x="237.53999"
         y="155.67999"
         id="tspan144">o par</tspan><tspan
         class="cls-10"
         x="294.98999"
         y="155.67999"
         id="tspan146">k</tspan><tspan
         class="cls-4"
         x="307.62"
         y="155.67999"
         id="tspan148">s and t</tspan><tspan
         class="cls-3"
         x="383.5"
         y="155.67999"
         id="tspan150">r</tspan><tspan
         class="cls-9"
         x="390.89999"
         y="155.67999"
         id="tspan152">ails</tspan><tspan
         class="cls-17"
         x="0"
         y="207.57001"
         id="tspan154">Retail</tspan><tspan
         class="cls-4"
         x="66.910004"
         y="207.57001"
         xml:space="preserve"
         id="tspan156"> - </tspan><tspan
         class="cls-11"
         x="88.959999"
         y="207.57001"
         id="tspan158">A</tspan><tspan
         class="cls-3"
         x="104.35"
         y="207.57001"
         id="tspan160">cc</tspan><tspan
         class="cls-4"
         x="128.77"
         y="207.57001"
         id="tspan162">ess</tspan><tspan
         class="cls-6"
         x="169.32001"
         y="207.57001"
         id="tspan164">t</tspan><tspan
         class="cls-14"
         x="177.67"
         y="207.57001"
         id="tspan166">o shopping</tspan><tspan
         class="cls-3"
         x="310.67999"
         y="207.57001"
         id="tspan168">c</tspan><tspan
         class="cls-4"
         x="322.89001"
         y="207.57001"
         id="tspan170">en</tspan><tspan
         class="cls-6"
         x="351.34"
         y="207.57001"
         id="tspan172">t</tspan><tspan
         class="cls-4"
         x="359.69"
         y="207.57001"
         id="tspan174">ers</tspan><tspan
         class="cls-18"
         x="0"
         y="259.47"
         id="tspan176">T</tspan><tspan
         class="cls-27"
         x="13.2"
         y="259.47"
         id="tspan178">r</tspan><tspan
         class="cls-17"
         x="21.57"
         y="259.47"
         id="tspan180">ansit</tspan><tspan
         class="cls-4"
         x="78.449997"
         y="259.47"
         xml:space="preserve"
         id="tspan182"> - </tspan><tspan
         class="cls-5"
         x="100.51"
         y="259.47"
         id="tspan184">A</tspan><tspan
         class="cls-3"
         x="115.9"
         y="259.47"
         id="tspan186">cc</tspan><tspan
         class="cls-4"
         x="140.32001"
         y="259.47"
         id="tspan188">ess</tspan><tspan
         class="cls-8"
         x="180.87"
         y="259.47"
         id="tspan190">t</tspan><tspan
         class="cls-4"
         x="189.22"
         y="259.47"
         id="tspan192">o major t</tspan><tspan
         class="cls-3"
         x="290.44"
         y="259.47"
         id="tspan194">r</tspan><tspan
         class="cls-9"
         x="297.85001"
         y="259.47"
         id="tspan196">ansit hubs</tspan></text>
    <text
       class="cls-53"
       transform="translate(43.9,373.63)"
       text-anchor="start"
       id="text212"><tspan
         x="0"
         y="0"
         id="tspan200">{{nh}}</tspan><tspan
         x="0"
         y="51.889999"
         id="tspan202">{{op}}</tspan><tspan
         x="0"
         y="103.79"
         id="tspan204">{{es}}</tspan><tspan
         x="0"
         y="155.67999"
         id="tspan206">{{rec}}</tspan><tspan
         x="0"
         y="207.57001"
         id="tspan208">{{ret}}</tspan><tspan
         x="0"
         y="259.47"
         id="tspan210">{{tr}}</tspan></text>
  </g>
  <rect
     class="cls-33"
     x="44.45"
     y="746.8"
     width="729.24"
     height="270.11"
     id="rect216" />
  <rect
     class="cls-43"
     x="44"
     y="712.24"
     width="729.24"
     height="33.14"
     id="rect218" />
  <text
     class="cls-20"
     transform="translate(58.67 734.56)"
     id="text236"><tspan
       class="cls-70"
       x="0"
       y="0"
       id="tspan220">INFRA</tspan><tspan
       class="cls-30"
       x="67.46"
       y="0"
       id="tspan222">S</tspan><tspan
       class="cls-70"
       x="80.43"
       y="0"
       id="tspan224">TRU</tspan><tspan
       class="cls-42"
       x="123.71"
       y="0"
       id="tspan226">C</tspan><tspan
       class="cls-74"
       x="138.35"
       y="0"
       id="tspan228">T</tspan><tspan
       class="cls-70"
       x="150.74"
       y="0"
       id="tspan230">URE MILE</tspan><tspan
       class="cls-61"
       x="256.11"
       y="0"
       id="tspan232">A</tspan><tspan
       class="cls-70"
       x="270.86"
       y="0"
       id="tspan234">GE</tspan></text>
  <text
     class="cls-44"
     id="text268"
     x="218.83"
     y="799.84998"><tspan
       class="cls-17"
       id="tspan250"><tspan
         x="218.83"
         y="799.84998"
         id="tspan238">Miles of high-stress roads</tspan></tspan><tspan
       class="cls-4"
       id="tspan266"><tspan
         x="218.83"
         y="829.84998"
         id="tspan252">Roads lacking adequa</tspan><tspan
         class="cls-57"
         x="467.04001"
         y="829.84998"
         id="tspan254">t</tspan><tspan
         x="475.38998"
         y="829.84998"
         id="tspan256">e bi</tspan><tspan
         class="cls-35"
         x="517.02002"
         y="829.84998"
         id="tspan258">k</tspan><tspan
         x="529.21002"
         y="829.84998"
         id="tspan260">e inf</tspan><tspan
         class="cls-50"
         x="577.34998"
         y="829.84998"
         id="tspan262">r</tspan><tspan
         x="584.75"
         y="829.84998"
         id="tspan264">astructure</tspan></tspan></text>
  <text
     class="cls-37"
     id="text272"
     x="59.0"
     y="829.07001"
     text-anchor="start">{{hsm}}</text>
  <g
     id="g340"
     transform="translate(16)">
    <text
       class="cls-44"
       transform="translate(202.83,919.57)"
       id="text334"><tspan
         class="cls-17"
         x="0"
         y="0"
         id="tspan274">Miles of l</tspan><tspan
         class="cls-15"
         x="101.91"
         y="0"
         id="tspan276">o</tspan><tspan
         class="cls-18"
         x="116.17"
         y="0"
         id="tspan278">w</tspan><tspan
         class="cls-17"
         x="136.55"
         y="0"
         id="tspan280">-st</tspan><tspan
         class="cls-19"
         x="166.39999"
         y="0"
         id="tspan282">r</tspan><tspan
         class="cls-17"
         x="175.56"
         y="0"
         id="tspan284">ess</tspan><tspan
         class="cls-29"
         x="218.87"
         y="0"
         id="tspan286">r</tspan><tspan
         class="cls-26"
         x="228.02"
         y="0"
         id="tspan288">o</tspan><tspan
         class="cls-16"
         x="242.50999"
         y="0"
         id="tspan290">ads and</tspan><tspan
         class="cls-26"
         x="340.95001"
         y="0"
         id="tspan292">p</tspan><tspan
         class="cls-17"
         x="356.51999"
         y="0"
         id="tspan294">aths</tspan><tspan
         class="cls-4"
         x="406.98001"
         y="0"
         id="tspan296" /><tspan
         class="cls-4"
         id="tspan316"><tspan
           x="0"
           y="30"
           id="tspan298">Roads where</tspan><tspan
           class="cls-69"
           x="152.44"
           y="30"
           id="tspan300">c</tspan><tspan
           x="164.47"
           y="30"
           id="tspan302">ars and bi</tspan><tspan
           class="cls-35"
           x="274.06"
           y="30"
           id="tspan304">k</tspan><tspan
           x="286.25"
           y="30"
           id="tspan306">es are sepa</tspan><tspan
           class="cls-52"
           x="410.35999"
           y="30"
           id="tspan308">r</tspan><tspan
           x="417.76001"
           y="30"
           id="tspan310">a</tspan><tspan
           class="cls-60"
           x="430.79999"
           y="30"
           id="tspan312">t</tspan><tspan
           x="439.14999"
           y="30"
           id="tspan314">ed</tspan></tspan><tspan
         class="cls-4"
         id="tspan332"><tspan
           x="0"
           y="60"
           id="tspan318">or t</tspan><tspan
           class="cls-52"
           x="37.540001"
           y="60"
           id="tspan320">r</tspan><tspan
           class="cls-58"
           x="44.939999"
           y="60"
           id="tspan322">a</tspan><tspan
           class="cls-2"
           x="57.360001"
           y="60"
           id="tspan324">v</tspan><tspan
           x="67.849998"
           y="60"
           id="tspan326">el speeds are l</tspan><tspan
           class="cls-2"
           x="226.84"
           y="60"
           id="tspan328">o</tspan><tspan
           class="cls-31"
           x="240.53"
           y="60"
           id="tspan330">w</tspan></tspan></text>
    <text
       class="cls-38"
       transform="translate(41.95,954.03)"
       text-anchor="start"
       id="text338">{{lsm}}</text>
  </g>
  <line
     class="cls-56"
     x1="618.46"
     y1="334.93"
     x2="618.46"
     y2="642.59"
     id="line342" />
  <text
     class="cls-47"
     transform="translate(695.2 375.9)"
     text-anchor="middle"
     id="text360">Overall</text>
  <text
     class="cls-47"
     transform="translate(695.2 405.9)"
     text-anchor="middle"
     id="text170">Score</text>
  <text
     class="cls-54"
     transform="translate(695.2 494.11)"
     text-anchor="middle"
     id="text364">{{bnasc}}</text>
  <line
     class="cls-56"
     x1="72.05"
     y1="871.17"
     x2="727.69"
     y2="869.13"
     id="line366" />
  <text
     class="cls-54"
     transform="translate(695.2 616.53)"
     text-anchor="middle"
     id="text370">100</text>
  <text
     class="cls-46"
     text-anchor="middle"
     id="text374"
     lengthAdjust="spacing"
     x="406.26001"
     y="138.19">{{ci}}</text>
  <text
     class="cls-12"
     text-anchor="middle"
     id="text378"
     x="406.26001"
     y="180.56"><tspan
       x="406.26001"
       y="180.56"
       id="tspan376">{{st}}, {{co}}</tspan></text>
  <text
     class="cls-7"
     text-anchor="middle"
     id="text382"
     x="406.26001"
     y="212.92999"><tspan
       x="406.26001"
       y="212.92999"
       id="tspan380">{{po}}</tspan></text>
  <line
     class="cls-55"
     x1="614.96002"
     y1="221.92999"
     x2="614.96002"
     y2="75.25"
     id="line384" />
  <text
     class="cls-23"
     transform="translate(695.2 534.4)"
     text-anchor="middle"
     id="text388">out of</text>
  <path
     d="m 67.016397,177.70831 c 0,1.73885 0.149576,2.29354 1.676526,2.29354 h 0.772822 c 1.514486,0 1.676525,-0.56092 1.676525,-2.29354 v -5.43469 h 3.072593 v 5.95198 c 0,3.73323 -0.885002,4.80522 -4.325308,4.80522 h -1.77625 c -3.40291,0 -4.325308,-1.07199 -4.325308,-4.80522 v -16.63438 c 0,-3.73323 0.922398,-4.80521 4.325308,-4.80521 h 1.77625 c 3.440306,0 4.325308,1.07198 4.325308,4.80521 v 4.8426 H 71.14227 v -4.32531 c 0,-1.73885 -0.149576,-2.29354 -1.676525,-2.29354 h -0.797748 c -1.514486,0 -1.676525,0.56092 -1.676525,2.29354 z"
     id="path390"
     style="stroke-width:0.623244" />
  <path
     d="m 76.146922,156.96675 h 3.253334 v 25.87709 h -3.253334 z"
     id="path392"
     style="stroke-width:0.623244" />
  <path
     d="m 83.700638,182.84384 v -22.84813 h -2.848225 v -3.02896 H 89.7648 v 3.02896 h -2.81083 v 22.84813 z"
     id="path394"
     style="stroke-width:0.623244" />
  <path
     d="m 94.72583,182.84384 v -8.72542 L 90.66227,156.96675 H 93.953 l 1.36491,6.09533 c 0.54845,2.3434 0.95356,4.71172 1.22156,7.09875 0.2867,-2.38703 0.69181,-4.75535 1.22156,-7.09875 l 1.36491,-6.09533 h 2.88561 l -4.03239,17.15167 v 8.72542 z"
     id="path396"
     style="stroke-width:0.623244" />
  <path
     d="m 119.30657,178.30039 c -0.0374,1.53318 0.14958,3.06636 0.56092,4.54345 h -3.40291 c -0.37394,-0.83515 -0.40511,-2.40572 -0.40511,-4.02616 v -4.95478 c 0,-1.77002 -0.29292,-2.58647 -1.92582,-2.58647 h -2.18136 v 11.57365 h -3.25333 v -25.8771 h 6.2823 c 3.44031,0 4.32531,1.07198 4.32531,4.80521 v 3.50887 c 0,2.69864 -0.4799,3.99499 -2.06917,4.46242 1.58927,0.51729 2.06917,1.81364 2.06917,4.54345 v 4.00123 z m -3.25333,-16.0049 c 0,-1.73886 -0.11218,-2.29354 -1.67652,-2.29354 h -2.43689 v 8.24552 h 2.43689 c 1.51447,0 1.67652,-0.56093 1.67652,-2.29354 z"
     id="path398"
     style="stroke-width:0.623244" />
  <path
     d="m 128.77989,178.89247 h -4.18821 l -0.56091,3.95761 h -2.89185 l 3.51509,-25.8771 h 4.46243 l 3.46523,25.8771 h -3.2471 z m -3.77063,-3.02896 h 3.36552 l -0.40511,-3.14115 c -0.66687,-5.17916 -1.03459,-9.57303 -1.29635,-13.05073 -0.26176,3.47147 -0.59208,7.87157 -1.25895,13.05073 z"
     id="path400"
     style="stroke-width:0.623244" />
  <path
     d="m 134.90014,182.84384 v -22.84813 h -2.84823 v -3.02896 h 8.89993 v 3.02896 h -2.79213 v 22.84813 z"
     id="path402"
     style="stroke-width:0.623244" />
  <path
     d="m 142.43516,156.96675 h 3.25957 v 25.87709 h -3.25957 z"
     id="path404"
     style="stroke-width:0.623244" />
  <path
     d="m 151.31015,167.87975 c -0.36771,-1.62667 -0.59208,-3.14115 -0.81021,-4.66187 0.0374,1.52072 0.0748,3.0352 0.0748,4.74289 v 14.89554 h -2.8046 v -25.88956 h 4.10094 l 3.0726,13.82355 c 0.36772,1.62667 0.62947,3.14115 0.83515,4.65563 -0.0374,-1.51448 -0.14958,-3.02896 -0.14958,-4.69302 v -13.79239 h 2.84823 v 25.87708 h -3.68338 l -3.4777,-14.96408 z"
     id="path406"
     style="stroke-width:0.623244" />
  <path
     d="m 165.79435,168.50299 h 5.10436 v 9.72261 c 0,3.73323 -0.885,4.80522 -4.32531,4.80522 h -1.77001 c -3.40292,0 -4.32532,-1.07199 -4.32532,-4.80522 v -16.63438 c 0,-3.73323 0.9224,-4.80521 4.32532,-4.80521 h 1.77001 c 3.44031,0 4.32531,1.07198 4.32531,4.80521 v 4.4001 h -3.07259 v -3.88281 c 0,-1.73885 -0.14958,-2.29354 -1.67653,-2.29354 h -0.77905 c -1.51448,0 -1.67653,0.56092 -1.67653,2.29354 v 15.5998 c 0,1.73885 0.14958,2.29354 1.67653,2.29354 h 0.77905 c 1.51449,0 1.67653,-0.56092 1.67653,-2.29354 v -6.17635 h -2.03177 z"
     id="path408"
     style="stroke-width:0.623244" />
  <path
     d="m 179.58051,175.89467 c 0,-2.3247 -0.56093,-3.02896 -3.14116,-5.3599 -2.99157,-2.69865 -3.77062,-3.84542 -3.77062,-7.25456 v -1.68899 c 0,-3.73323 0.885,-4.80521 4.32531,-4.80521 h 1.51448 c 3.44031,0 4.32532,1.07198 4.32532,4.80521 v 4.03238 h -3.07259 v -3.51509 c 0,-1.73885 -0.11219,-2.29354 -1.67654,-2.29354 h -0.56091 c -1.51448,0 -1.67653,0.56092 -1.67653,2.23121 v 1.22156 c 0,2.32471 0.56092,3.0726 3.14115,5.3973 2.99157,2.69864 3.80802,3.80802 3.80802,7.21093 v 2.36833 c 0,3.73323 -0.9224,4.80521 -4.32531,4.80521 h -1.52695 c -3.40291,0 -4.28792,-1.07198 -4.28792,-4.80521 v -4.78028 h 3.02896 v 4.25052 c 0,1.73885 0.11219,2.29354 1.67653,2.29354 h 0.56092 c 1.51448,0 1.67653,-0.56092 1.67653,-2.29354 l -0.0187,-1.81364 z"
     id="path410"
     style="stroke-width:0.623244" />
  <path
     class="cls-65"
     d="m 31.131937,175.62613 v 5.02754 c 0,1.1573 0.935618,2.09668 2.092929,2.09668 h 20.591113 c 1.15731,0 2.096686,-0.93938 2.096686,-2.09668 v 0 -5.02754 z m 16.938821,2.97594 c -2.551345,2.4048 -6.534297,2.4048 -9.085641,0 l -0.06388,-0.0564 0.72144,-0.72143 0.06012,0.0563 c 2.153049,2.01403 5.497226,2.01403 7.650274,0 l 0.06012,-0.0563 0.728955,0.72519 -0.06388,0.0488 z"
     id="path412"
     style="stroke-width:0.37575" />
  <path
     class="cls-51"
     d="M 53.819736,156.78977 H 33.228624 c -1.157311,0 -2.096687,0.93938 -2.096687,2.09668 0,0 0,0 0,0 v 15.6951 h 5.215413 c -1.878751,-0.83793 -2.724189,-3.04359 -1.886266,-4.92609 0.837923,-1.87875 3.043577,-2.7242 4.926086,-1.88627 0.06764,0.0301 0.131513,0.0601 0.19539,0.0939 l 1.09719,-1.76978 -0.338174,-1.01078 c -0.244238,-0.0526 -0.387024,0 -0.770289,-0.0526 -0.383265,-0.0526 -0.432112,-0.16909 -0.353204,-0.37576 0.07891,-0.20665 0.503504,-0.11647 0.883012,-0.0789 0.379508,0.0375 1.097191,-0.10521 1.435366,-0.11648 0.278055,-0.004 0.529808,0.16909 0.627503,0.43211 -0.169087,0.0226 -0.334417,0.0376 -0.503505,0.0376 -0.187875,-0.0151 -0.379508,0.0188 -0.548596,0.10145 -0.06387,0.0226 -0.131513,0.0414 -0.19539,0.0563 l 0.251753,0.75902 h 5.726433 l -0.537323,-1.4767 h 2.002749 c 0.544838,0 0.984466,0.4509 0.984466,0.99574 0,0.54484 -0.450901,0.98446 -0.995738,0.98446 h -0.06764 v -0.52605 h 0.06388 c 0.255511,0 0.465931,-0.2029 0.469688,-0.45841 0,-0.25551 -0.202905,-0.46593 -0.458415,-0.46969 h -1.239979 l 0.969435,2.67534 c 0.323145,-0.0902 0.661321,-0.13527 0.999496,-0.13527 2.059111,0 3.7312,1.66834 3.7312,3.72745 0,1.48045 -0.875498,2.82188 -2.228199,3.41556 h 5.328138 v -15.69508 c 0,-1.15731 -0.935618,-2.09669 -2.092928,-2.09669 z"
     id="path414"
     style="stroke-width:0.37575" />
  <path
     class="cls-51"
     d="m 45.361599,171.17349 c 0,-1.48046 0.87174,-2.81813 2.22444,-3.41557 l -0.37575,-1.0258 -4.276037,4.52779 c -0.116482,0.12024 -0.274297,0.18788 -0.439628,0.18788 h -0.928103 c -0.101453,1.379 -0.954406,2.58892 -2.220684,3.14127 h 8.24396 c -1.356458,-0.59369 -2.231956,-1.93887 -2.228198,-3.41933 z"
     id="path416"
     style="stroke-width:0.37575" />
  <path
     class="cls-51"
     d="m 39.631408,168.81002 -1.300096,2.09293 h 2.464922 c -0.06012,-0.69139 -0.364479,-1.33767 -0.852954,-1.82615 -0.0977,-0.0977 -0.199148,-0.18412 -0.311872,-0.26302 z"
     id="path418"
     style="stroke-width:0.37575" />
  <path
     class="cls-51"
     d="m 40.040976,168.15245 c 0.88677,0.64629 1.446637,1.65331 1.525545,2.7505 h 0.698895 l -1.363973,-4.13701 z"
     id="path420"
     style="stroke-width:0.37575" />
  <path
     class="cls-51"
     d="m 35.753665,169.07304 c -1.157311,1.15732 -1.157311,3.03231 0,4.18961 1.157311,1.15732 3.032305,1.15732 4.189615,0 0.492233,-0.49223 0.792833,-1.13852 0.85671,-1.83365 h -2.464921 c -0.146543,0.28181 -0.492232,0.39453 -0.777803,0.24799 -0.281812,-0.14654 -0.394538,-0.49223 -0.247995,-0.7778 0.101453,-0.19539 0.3006,-0.31563 0.522293,-0.31187 h 0.06388 l 1.281308,-2.06287 c -0.413324,-0.20666 -0.867982,-0.31563 -1.326397,-0.31563 -0.785319,0 -1.540576,0.30811 -2.09293,0.86422 z"
     id="path422"
     style="stroke-width:0.37575" />
  <path
     class="cls-51"
     d="m 52.05371,171.17349 c 0,-1.63828 -1.326399,-2.96467 -2.964669,-2.96467 -0.247996,0 -0.492234,0.03 -0.732713,0.0939 l 0.84168,2.30335 c 0.315631,0.0488 0.526051,0.34569 0.477203,0.65757 -0.04885,0.31562 -0.345691,0.52605 -0.657563,0.4772 -0.31563,-0.0488 -0.52605,-0.34569 -0.477203,-0.65756 0.01879,-0.11648 0.07139,-0.22545 0.154058,-0.30812 l -0.841681,-2.29583 c -0.319387,0.14654 -0.608715,0.34945 -0.852953,0.59744 -1.15731,1.15731 -1.161068,3.03231 -0.0038,4.18962 1.157311,1.15731 3.032305,1.16107 4.189615,0.004 0.55611,-0.55612 0.87174,-1.31138 0.87174,-2.09669 v 0 z"
     id="path424"
     style="stroke-width:0.37575" />
  <polygon
     class="cls-51"
     points="84.77,139.37 70.29,139.37 74.07,150.82 74.07,150.83 "
     id="polygon426"
     transform="matrix(0.37575023,0,0,0.37575023,14.933345,114.02564)" />
  <path
     class="cls-78"
     d="m 70.83564,148.52582 c -0.6043,0.54864 -1.39944,0.84284 -2.21843,0.81899 -0.8349,0.0557 -1.64594,-0.2783 -2.20253,-0.90646 v 4.13472 h -2.28205 v -12.45981 h 2.20253 v 0.85079 c 0.56455,-0.65996 1.4074,-1.00982 2.2741,-0.95416 0.81899,-0.0239 1.61413,0.27035 2.21843,0.81899 0.90646,0.90646 0.92236,2.46493 0.92236,3.82461 0,1.35969 -0.0159,2.93406 -0.92236,3.84847 m -2.88635,-6.44857 c -1.36764,0 -1.53462,1.12115 -1.53462,2.60806 0,1.4869 0.17493,2.62395 1.53462,2.62395 1.35969,0 1.53462,-1.1291 1.53462,-2.62395 0,-1.49486 -0.17493,-2.60806 -1.53462,-2.60806"
     id="path428"
     style="stroke-width:0.795138" />
  <path
     class="cls-78"
     d="m 75.07373,145.40092 c 0,1.16886 0.71562,2.02761 1.98784,2.02761 0.78719,0.0477 1.54257,-0.2624 2.05941,-0.85875 l 1.38354,1.34378 c -0.87465,0.97802 -2.14687,1.50281 -3.45885,1.4233 -2.13892,0 -4.21423,-0.97802 -4.21423,-4.66746 0,-2.97382 1.60618,-4.65156 3.97569,-4.65156 2.53649,0 3.96774,1.85267 3.96774,4.3494 v 1.01778 h -5.70114 z m 3.25211,-2.52058 c -0.41347,-0.84285 -1.43125,-1.18476 -2.27409,-0.77129 -0.33396,0.16698 -0.60431,0.43733 -0.77129,0.77129 -0.13517,0.3101 -0.20673,0.64406 -0.20673,0.97802 h 3.45885 c 0,-0.33396 -0.0795,-0.66792 -0.20674,-0.97802"
     id="path430"
     style="stroke-width:0.795138" />
  <path
     class="cls-78"
     d="m 88.83756,148.23161 c -1.59027,1.48691 -4.06315,1.48691 -5.65343,0 -0.81899,-0.85874 -1.02572,-1.89242 -1.02572,-3.56221 0,-1.66979 0.20673,-2.67962 1.02572,-3.53042 1.59028,-1.49485 4.06316,-1.49485 5.65343,0 0.819,0.8508 1.03368,1.88448 1.03368,3.53042 0,1.64593 -0.21468,2.69551 -1.03368,3.56221 m -1.78111,-5.75679 c -0.28624,-0.2783 -0.66791,-0.42143 -1.06548,-0.40552 -0.38962,-0.0159 -0.77128,0.12722 -1.04958,0.40552 -0.45323,0.48503 -0.50889,1.25631 -0.50889,2.20253 0,0.94621 0.0557,1.7493 0.52479,2.21843 0.2783,0.2783 0.65997,0.42143 1.04958,0.40552 0.39757,0.0239 0.78719,-0.12722 1.06549,-0.40552 0.46913,-0.46913 0.52479,-1.27222 0.52479,-2.21843 0,-0.94622 -0.0557,-1.7334 -0.52479,-2.20253"
     id="path432"
     style="stroke-width:0.795138" />
  <path
     class="cls-78"
     d="m 98.06911,148.52582 c -0.61225,0.54864 -1.39944,0.84284 -2.21843,0.81899 -0.8349,0.0557 -1.64594,-0.2783 -2.20253,-0.90646 v 4.13472 h -2.2741 v -12.45981 h 2.20254 v 0.85079 c 0.56454,-0.65996 1.40739,-1.00982 2.27409,-0.95416 0.81899,-0.0239 1.61413,0.27035 2.21843,0.81899 0.90646,0.90646 0.92236,2.46493 0.92236,3.82461 0,1.35969 -0.0159,2.93406 -0.92236,3.84847 m -2.88635,-6.44857 c -1.36763,0 -1.53461,1.12115 -1.53461,2.60806 0,1.4869 0.17493,2.62395 1.53461,2.62395 1.35969,0 1.53462,-1.1291 1.53462,-2.62395 0,-1.49486 -0.17493,-2.60806 -1.53462,-2.60806"
     id="path434"
     style="stroke-width:0.795138" />
  <path
     class="cls-78"
     d="m 103.03873,149.24939 c -1.87653,0 -2.65576,-1.31198 -2.65576,-2.60805 v -9.84381 h 2.27409 v 9.70068 c 0,0.54865 0.22264,0.82695 0.80309,0.82695 h 0.87465 v 1.92423 z"
     id="path436"
     style="stroke-width:0.795138" />
  <path
     class="cls-78"
     d="m 107.23705,145.40092 c 0,1.16886 0.71563,2.02761 1.98785,2.02761 0.78719,0.0477 1.55052,-0.2624 2.06736,-0.85875 l 1.38354,1.34378 c -0.87465,0.97802 -2.15483,1.49486 -3.45885,1.4233 -2.15483,0 -4.21423,-0.97802 -4.21423,-4.66746 0,-2.97382 1.60618,-4.65156 3.96773,-4.65156 2.53649,0 3.96774,1.85267 3.96774,4.3494 v 1.01778 h -5.70114 z m 3.25212,-2.52058 c -0.42142,-0.84285 -1.4392,-1.18476 -2.2741,-0.76334 -0.33395,0.16698 -0.59635,0.42938 -0.76333,0.76334 -0.13517,0.3101 -0.20673,0.64406 -0.20673,0.97802 h 3.45885 c 0,-0.33396 -0.0795,-0.66792 -0.20674,-0.97802"
     id="path438"
     style="stroke-width:0.795138" />
  <path
     class="cls-77"
     d="m 117.04906,143.46079 v 5.7886 h -1.84472 v -5.7886 h -0.77129 v -1.4074 h 0.77129 v -0.92236 c -0.0557,-1.11319 0.79513,-2.0594 1.90833,-2.12302 0.0795,0 0.16698,0 0.24649,0 h 1.04958 v 1.56643 h -0.71562 c -0.43733,0 -0.64406,0.24649 -0.64406,0.67586 v 0.81104 h 1.36763 v 1.4074 h -1.38354 z"
     id="path440"
     style="stroke-width:0.795138" />
  <path
     class="cls-77"
     d="m 124.32457,148.42245 c -1.28813,1.20861 -3.29982,1.20861 -4.58795,0 -0.66791,-0.71563 -0.84284,-1.53462 -0.84284,-2.88635 0,-1.35174 0.16697,-2.17868 0.84284,-2.87045 1.28813,-1.21656 3.29982,-1.21656 4.58795,0 0.66791,0.69177 0.84284,1.53462 0.84284,2.87045 0,1.33583 -0.17493,2.18663 -0.84284,2.88635 m -1.4233,-4.67541 c -0.23059,-0.22264 -0.54069,-0.34191 -0.8667,-0.32601 -0.31805,-0.0159 -0.62816,0.10337 -0.8508,0.32601 -0.38166,0.38166 -0.42937,1.02572 -0.42937,1.78111 0,0.75538 0.0398,1.42329 0.42937,1.80496 0.23059,0.22264 0.5407,0.34191 0.8508,0.32601 0.3101,0.0159 0.61226,-0.0954 0.84285,-0.31011 0.38166,-0.38166 0.42937,-1.04163 0.42937,-1.80496 0,-0.76333 -0.0398,-1.4233 -0.42937,-1.78111"
     id="path442"
     style="stroke-width:0.795138" />
  <path
     class="cls-77"
     d="m 130.41532,143.85836 c -0.24649,-0.28625 -0.6043,-0.45323 -0.98597,-0.43733 -0.56455,0 -1.1927,0.42142 -1.1927,1.36764 v 4.46867 h -1.84472 v -7.41068 h 1.80496 v 0.71562 c 0.47708,-0.51684 1.15295,-0.81104 1.86062,-0.79514 0.65997,-0.0318 1.29608,0.23059 1.74931,0.71563 l -1.3915,1.39149 z"
     id="path444"
     style="stroke-width:0.795138" />
  <path
     class="cls-78"
     d="m 139.84566,148.52582 c -0.60431,0.54864 -1.39944,0.84284 -2.21844,0.81899 -0.8667,0.0557 -1.70954,-0.30215 -2.27409,-0.96212 v 0.8508 h -2.20253 v -12.45981 h 2.27409 v 4.15857 c 0.5566,-0.62816 1.36764,-0.96212 2.20253,-0.90646 0.819,-0.0239 1.61413,0.27035 2.21844,0.81899 0.91441,0.90646 0.92236,2.46493 0.92236,3.82462 0,1.35968 0,2.93406 -0.92236,3.84846 m -2.88635,-6.44856 c -1.36764,0 -1.54257,1.12114 -1.54257,2.60805 0,1.48691 0.17493,2.62395 1.54257,2.62395 1.36764,0 1.53461,-1.12909 1.53461,-2.62395 0,-1.49486 -0.17493,-2.60805 -1.53461,-2.60805"
     id="path446"
     style="stroke-width:0.795138" />
  <path
     class="cls-78"
     d="m 142.88309,136.72597 h 2.32975 v 1.85267 h -2.32975 z m 0.0318,3.41114 h 2.2741 v 9.11228 h -2.2741 z"
     id="path448"
     style="stroke-width:0.795138" />
  <polygon
     class="cls-78"
     points="230.35,129.5 230.35,132.91 227.48,132.91 227.48,117.25 230.35,117.25 230.35,126.13 234.15,121.45 237.6,121.45 233.51,126.07 237.9,132.91 234.37,132.91 231.55,128.13 "
     id="polygon450"
     transform="matrix(0.79513789,0,0,0.79513789,-33.168394,43.567614)" />
  <path
     class="cls-78"
     d="m 158.85741,145.40092 c 0,1.16886 0.71562,2.02761 1.99579,2.02761 0.77924,0.0477 1.54257,-0.27035 2.05941,-0.85875 l 1.38354,1.34378 c -0.8826,0.97802 -2.15482,1.50281 -3.4668,1.4233 -2.13892,0 -4.21423,-0.97802 -4.21423,-4.66746 0,-2.97382 1.60618,-4.65156 3.97569,-4.65156 2.53649,0 3.96773,1.85267 3.96773,4.3494 v 1.01778 h -5.70113 z m 3.25211,-2.52058 c -0.41347,-0.84285 -1.43125,-1.18476 -2.27409,-0.77129 -0.33396,0.16698 -0.60431,0.43733 -0.77129,0.77129 -0.13517,0.3101 -0.20673,0.64406 -0.20673,0.97802 h 3.45885 c 0,-0.33396 -0.0795,-0.66792 -0.20674,-0.97802"
     id="path452"
     style="stroke-width:0.795138" />
  <path
     class="cls-78"
     d="m 169.7667,149.35276 c -1.4233,0 -2.72732,-0.15903 -3.88027,-1.31198 l 1.50281,-1.48691 c 0.65996,0.60431 1.53461,0.91441 2.42517,0.85875 0.78718,0 1.60617,-0.26239 1.60617,-0.94621 0,-0.45323 -0.24649,-0.77129 -0.96211,-0.84285 l -1.4233,-0.13517 c -1.63798,-0.15903 -2.65576,-0.87465 -2.65576,-2.55239 0,-1.89243 1.66979,-2.90226 3.51451,-2.90226 1.4233,0 2.60805,0.2465 3.47475,1.06549 l -1.39944,1.42329 c -0.52479,-0.47708 -1.32788,-0.61225 -2.11507,-0.61225 -0.90645,0 -1.29607,0.42142 -1.29607,0.87465 0,0.33396 0.13517,0.71562 0.94621,0.78719 l 1.4233,0.14312 c 1.80496,0.17493 2.71142,1.13705 2.71142,2.67166 0,2.0117 -1.70955,2.97382 -3.86437,2.97382"
     id="path454"
     style="stroke-width:0.795138" />
  <path
     style="fill:#000000;stroke-width:0.999997"
     d="M 0.53999922,73.410003 816.25,75.249999"
     id="path1" />
</svg>
