<?xml version="1.0" encoding="UTF-8"?><svg id="svg1034" xmlns="http://www.w3.org/2000/svg" xmlns:xlink="http://www.w3.org/1999/xlink" viewBox="0 0 816.25 1056"><defs><style>.cls-1{letter-spacing:-.02em;}.cls-1,.cls-2,.cls-3,.cls-4,.cls-5,.cls-6,.cls-7,.cls-8,.cls-9,.cls-10,.cls-11,.cls-12,.cls-13,.cls-14,.cls-15,.cls-16,.cls-17,.cls-18,.cls-19,.cls-20,.cls-21,.cls-22,.cls-23,.cls-24{font-family:Montserrat-Medium, Montserrat;font-weight:500;}.cls-25,.cls-8,.cls-26{letter-spacing:-.01em;}.cls-27,.cls-28,.cls-29,.cls-30{fill:#00263e;}.cls-27,.cls-29,.cls-30{font-family:Montserrat-SemiBold, Montserrat;font-weight:600;}.cls-31{letter-spacing:.03em;}.cls-32{letter-spacing:.33em;}.cls-33,.cls-7,.cls-34{fill:#fff;}.cls-35{letter-spacing:-.03em;}.cls-35,.cls-36,.cls-37,.cls-38,.cls-39,.cls-40,.cls-41,.cls-42,.cls-43,.cls-44,.cls-45,.cls-46,.cls-47,.cls-48,.cls-49,.cls-50,.cls-51,.cls-52,.cls-53,.cls-54,.cls-55,.cls-56,.cls-57,.cls-58,.cls-59,.cls-26,.cls-60,.cls-61,.cls-62{font-family:Montserrat-ExtraLight, Montserrat;font-weight:200;}.cls-2{letter-spacing:-.02em;}.cls-63{letter-spacing:.18em;}.cls-3{letter-spacing:-.01em;}.cls-64{letter-spacing:-.07em;}.cls-36,.cls-65{letter-spacing:0em;}.cls-66{letter-spacing:.18em;}.cls-37,.cls-5{letter-spacing:-.02em;}.cls-38,.cls-67{font-size:18px;}.cls-68{letter-spacing:.18em;}.cls-6{letter-spacing:0em;}.cls-69,.cls-61{letter-spacing:-.03em;}.cls-39,.cls-10,.cls-70{letter-spacing:0em;}.cls-71{letter-spacing:.18em;}.cls-40{letter-spacing:0em;}.cls-72{letter-spacing:.34em;}.cls-73{clip-path:url(#clippath-2);}.cls-74{letter-spacing:.2em;}.cls-7{font-size:16px;}.cls-7,.cls-34{isolation:isolate;}.cls-41{letter-spacing:-.01em;}.cls-75,.cls-52{letter-spacing:-.03em;}.cls-76{fill:#8b8a8d;}.cls-42,.cls-77{letter-spacing:-.02em;}.cls-78{letter-spacing:-.02em;}.cls-79{clip-path:url(#clippath-6);}.cls-80{letter-spacing:.34em;}.cls-81{letter-spacing:-.02em;}.cls-43{letter-spacing:-.01em;}.cls-29{letter-spacing:-.02em;}.cls-82{fill:#119fda;}.cls-45,.cls-83{letter-spacing:-.06em;}.cls-84,.cls-62{letter-spacing:-.04em;}.cls-85{clip-path:url(#clippath-7);}.cls-86{letter-spacing:-.03em;}.cls-46{letter-spacing:0em;}.cls-87{clip-path:url(#clippath-1);}.cls-9,.cls-88,.cls-57{letter-spacing:-.02em;}.cls-89{clip-path:url(#clippath-4);}.cls-90,.cls-54,.cls-22{letter-spacing:0em;}.cls-34{font-family:Montserrat-Bold, Montserrat;font-size:24px;font-weight:700;}.cls-91{letter-spacing:-.03em;}.cls-92{letter-spacing:0em;}.cls-93{letter-spacing:-.01em;}.cls-47,.cls-94{letter-spacing:0em;}.cls-48,.cls-11{letter-spacing:-.01em;}.cls-49,.cls-95{letter-spacing:-.03em;}.cls-96,.cls-60{letter-spacing:0em;}.cls-50{letter-spacing:-.02em;}.cls-97{letter-spacing:.33em;}.cls-98{letter-spacing:.19em;}.cls-99,.cls-56{letter-spacing:-.03em;}.cls-12{letter-spacing:0em;}.cls-13{letter-spacing:-.02em;}.cls-100{letter-spacing:.03em;}.cls-30{letter-spacing:0em;}.cls-101{letter-spacing:.17em;}.cls-102{letter-spacing:-.04em;}.cls-103{fill:#009edb;}.cls-104{fill:#09273d;}.cls-14{letter-spacing:0em;}.cls-15{letter-spacing:0em;}.cls-105{fill:#e02726;}.cls-51{letter-spacing:0em;}.cls-106{letter-spacing:0em;}.cls-107{clip-path:url(#clippath);}.cls-16{letter-spacing:0em;}.cls-108{letter-spacing:.19em;}.cls-109{fill:#df271c;}.cls-17{letter-spacing:-.05em;}.cls-110{fill:none;}.cls-53{letter-spacing:-.04em;}.cls-111{clip-path:url(#clippath-3);}.cls-112{letter-spacing:-.01em;}.cls-55{letter-spacing:-.01em;}.cls-113{letter-spacing:.2em;}.cls-114{clip-path:url(#clippath-8);}.cls-115{letter-spacing:0em;}.cls-116{letter-spacing:.2em;}.cls-18{letter-spacing:0em;}.cls-117{letter-spacing:.2em;}.cls-118{fill:#e6e7e8;}.cls-58{letter-spacing:0em;}.cls-59{letter-spacing:-.06em;}.cls-19{letter-spacing:-.01em;}.cls-119{clip-path:url(#clippath-5);}.cls-20{letter-spacing:0em;}.cls-120{letter-spacing:-.03em;}.cls-121{letter-spacing:-.01em;}.cls-122{font-size:17px;}.cls-123{fill:#8a898c;}.cls-124{fill:#484846;}.cls-21{letter-spacing:0em;}.cls-23{letter-spacing:-.01em;}.cls-125{letter-spacing:0em;}.cls-126{letter-spacing:0em;}.cls-24{letter-spacing:0em;}.cls-127{letter-spacing:.16em;}.cls-128{letter-spacing:-.01em;}.cls-129{letter-spacing:.18em;}</style><clipPath id="clippath"><path class="cls-110" d="M76.93,818.57h-2.7v6.39h2.7c4.6,0,7.63-2.29,9.63-4.84-1.17-1.55-2.16-3.28-2.87-5.13l-.41-1.08c-1.63,3.28-3.57,4.66-6.35,4.66m26.9-21.75h-4.54c-3.41,0-7.08,1.99-9.89,5.03,.9,1.45,1.7,3.09,2.41,4.94l.48,1.27c1.76-2.74,4.66-4.85,7-4.85h4.54v4.95l11.32-8.15-11.32-8.15v4.95h0Z"/></clipPath><clipPath id="clippath-1"><path class="cls-110" d="M74.23,796.59v6.39h2.7c3.35,0,5.47,1.99,7.32,6.9l1.5,3.99c2.3,6.11,8.24,10.88,13.54,10.88h4.54v4.95l11.32-8.15-11.32-8.14v4.95h-4.54c-2.89,0-6.65-3.23-8.04-6.9l-1.5-3.99c-1.02-2.69-4.11-10.87-12.82-10.87h-2.69Z"/></clipPath><clipPath id="clippath-2"><path class="cls-110" d="M92.29,629.2c-.34,0-.67-.02-1.02-.05l-.62,6.67c.54,.05,1.08,.07,1.63,.07,.61,0,1.23-.03,1.83-.08l-.7-6.66c-.37,.03-.75,.06-1.13,.06m-7.58,5.16c1.05,.45,2.14,.8,3.28,1.06l1.65-6.51c-.7-.16-1.37-.37-2.02-.65l-2.93,6.1h.01Zm10.47-5.51l1.8,6.47c1.13-.28,2.23-.66,3.26-1.12l-3.07-6.03c-.64,.29-1.31,.52-2,.69m-15.42,2.43c.85,.74,1.78,1.4,2.76,1.98l3.77-5.68c-.61-.36-1.18-.76-1.7-1.23l-4.83,4.91h0Zm-3.55-4.21c.58,.95,1.24,1.85,1.98,2.68l5.43-4.32c-.47-.51-.87-1.06-1.23-1.65l-6.19,3.29Zm-1.96-4.84c.25,1.08,.6,2.13,1.05,3.12l6.54-2.62c-.27-.61-.49-1.25-.65-1.91,0,0-6.95,1.41-6.95,1.41Zm-.43-3.69c0,.67,.05,1.34,.12,1.99l7.07-.76c-.05-.4-.07-.81-.07-1.23,0-.27,.01-.53,.04-.79l-7.09-.49c-.04,.42-.06,.84-.06,1.27m.23-2.79l7.02,1.06c.11-.67,.29-1.32,.54-1.94l-6.69-2.29c-.39,1.02-.69,2.07-.87,3.17m1.41-4.38l6.48,2.76c.29-.61,.65-1.19,1.05-1.75l-5.81-3.86c-.66,.89-1.24,1.84-1.73,2.83m2.44-3.72l5.54,4.2c.45-.52,.94-1.01,1.49-1.43l-4.61-5.1c-.88,.71-1.69,1.49-2.41,2.34m3.17-2.91l4.32,5.32c.56-.4,1.18-.76,1.81-1.06l-3.19-5.98c-1.04,.49-2.02,1.08-2.94,1.73m3.63-2.03l2.93,6.1c.64-.28,1.31-.49,2.01-.65l-1.65-6.51c-1.14,.25-2.24,.61-3.28,1.05m3.81-1.17l1.45,6.55c.69-.14,1.4-.21,2.12-.22l-.12-6.69c-1.18,.02-2.33,.14-3.44,.36m3.77,6.34c6.1,0,11.07,4.53,11.34,10.21h-3.5l7.06,9.32,7.06-9.32h-3.49c-.27-9.38-8.43-16.9-18.45-16.9v6.69h-.01Z"/></clipPath><clipPath id="clippath-3"><path class="cls-110" d="M74.31,728.85v7.46h8.37c1.79,0,3.09,1.44,3.87,4.25,1.64,5.95,6.21,9.66,11.96,9.66h8.37v4.5l10.99-8.22-10.99-8.23v4.5h-8.37c-3.41,0-4.65-2.67-5.08-4.25-1.66-6.04-5.67-9.66-10.73-9.66h-8.38Z"/></clipPath><clipPath id="clippath-4"><path class="cls-110" d="M86.78,752.6c-.78,2.88-2.08,4.34-3.88,4.34h-8.41v7.6h8.41c5.08,0,9.1-3.68,10.78-9.84,.26-.96,.81-2.31,1.92-3.24-2.6-.39-4.91-1.61-6.71-3.47-.92,1.34-1.64,2.88-2.12,4.62"/></clipPath><clipPath id="clippath-5"><path class="cls-110" d="M77.94,854.65c-.36,.37-.56,.85-.56,1.34v.06c0,.48,.19,.97,.56,1.34l9.8,9.92h-7.52c-1.21,0-2.19,1-2.19,2.21s.98,2.21,2.19,2.21h14.61v-14.79c0-1.23-.98-2.21-2.19-2.21s-2.19,1-2.19,2.21v7.62l-9.8-9.92c-.38-.37-.86-.57-1.35-.57s-.98,.18-1.35,.57"/></clipPath><clipPath id="clippath-6"><path class="cls-110" d="M100.64,877.96v14.79c0,1.23,.98,2.21,2.19,2.21s2.2-1,2.2-2.21v-7.62l9.8,9.92c.74,.75,1.96,.75,2.7,0s.74-1.98,0-2.73l-9.8-9.92h7.53c1.21,0,2.2-1,2.2-2.21s-.98-2.21-2.2-2.21h-14.61Z"/></clipPath><clipPath id="clippath-7"><path class="cls-110" d="M114.82,854.65l-9.8,9.92v-7.62c0-1.23-.98-2.21-2.19-2.21s-2.19,1-2.19,2.21v14.79h14.61c1.21,0,2.2-1,2.2-2.21s-.98-2.21-2.2-2.21h-7.53l9.8-9.92c.74-.75,.74-1.98,0-2.73-.38-.38-.86-.57-1.35-.57s-.97,.18-1.35,.57"/></clipPath><clipPath id="clippath-8"><path class="cls-110" d="M80.22,877.96c-1.21,0-2.19,1-2.19,2.21s.98,2.23,2.19,2.23h7.53l-9.8,9.92c-.74,.75-.74,1.98,0,2.73s1.96,.75,2.7,0l9.8-9.92v7.62c0,1.23,.98,2.21,2.19,2.21s2.19-1,2.19-2.21v-14.79h-14.6Z"/></clipPath></defs><path id="header_bar" class="cls-118" d="M0,199.42H815.71v856.58H0V199.42Z"/><path id="header_bar-2" class="cls-109" d="M.54,51.73H816.25V0H.54V51.73Z"/><text class="cls-34" transform="translate(245.79 36.16)"><tspan class="cls-80" x="0" y="0">CITY S</tspan><tspan class="cls-32" x="127.08" y="0">C</tspan><tspan class="cls-72" x="151.56" y="0">ORE</tspan><tspan class="cls-97" x="228.91" y="0">C</tspan><tspan class="cls-80" x="253.49" y="0">ARD</tspan></text><rect class="cls-33" x="44.22" y="248.69" width="729.24" height="228.22"/><rect class="cls-103" x="43.77" y="225.02" width="729.24" height="33.14"/><text class="cls-7" transform="translate(58.45 247.34)"><tspan class="cls-71" x="0" y="0">W</tspan><tspan class="cls-113" x="20.98" y="0">H</tspan><tspan class="cls-127" x="37.17" y="0">A</tspan><tspan class="cls-113" x="51.52" y="0">T IS </tspan><tspan class="cls-98" x="100.42" y="0">P</tspan><tspan class="cls-74" x="115.01" y="0">E</tspan><tspan class="cls-113" x="128.91" y="0">O</tspan><tspan class="cls-98" x="145.55" y="0">P</tspan><tspan class="cls-116" x="160.14" y="0">LE</tspan><tspan class="cls-108" x="186.77" y="0">F</tspan><tspan class="cls-113" x="200" y="0">ORBIKE</tspan><tspan class="cls-98" x="283.57" y="0">S</tspan><tspan class="cls-113" x="296.54" y="0">’ CI</tspan><tspan class="cls-108" x="333.81" y="0">T</tspan><tspan class="cls-113" x="346.27" y="0">Y R</tspan><tspan class="cls-101" x="382.16" y="0">A</tspan><tspan class="cls-113" x="396.51" y="0">TING</tspan><tspan class="cls-66" x="449" y="0">S</tspan><tspan class="cls-113" x="461.82" y="0">?</tspan></text><rect class="cls-33" x="44.22" y="526.69" width="729.24" height="457.54"/><rect class="cls-76" x="44.22" y="506.24" width="729.24" height="33.14"/><text class="cls-7" transform="translate(58.67 528.56)"><tspan class="cls-113" x="0" y="0">H</tspan><tspan class="cls-63" x="16.19" y="0">O</tspan><tspan class="cls-113" x="32.48" y="0">W CITIES </tspan><tspan class="cls-129" x="139.44" y="0">C</tspan><tspan class="cls-116" x="153.94" y="0">AN IM</tspan><tspan class="cls-98" x="219.18" y="0">P</tspan><tspan class="cls-113" x="233.77" y="0">R</tspan><tspan class="cls-63" x="248.61" y="0">O</tspan><tspan class="cls-71" x="264.89" y="0">V</tspan><tspan class="cls-113" x="279.25" y="0">E THEIR S</tspan><tspan class="cls-68" x="387.01" y="0">C</tspan><tspan class="cls-117" x="401.53" y="0">ORE</tspan></text><text class="cls-122" transform="translate(67.33 289.16)"><tspan class="cls-44" x="0" y="0">PeopleForBi</tspan><tspan class="cls-50" x="99.79" y="0">k</tspan><tspan class="cls-58" x="108.8" y="0">es’ </tspan><tspan class="cls-27" x="134.4" y="0">City Ratings</tspan><tspan class="cls-44" x="237.79" y="0" xml:space="preserve"> prog</tspan><tspan class="cls-56" x="281.36" y="0">r</tspan><tspan class="cls-44" x="286.84" y="0">am s</tspan><tspan class="cls-52" x="326.77" y="0">c</tspan><tspan class="cls-44" x="335.8" y="0">ores cities on a 0 - 100 scale as measured </tspan><tspan class="cls-44"><tspan class="cls-128" x="0" y="24">b</tspan><tspan x="11.15" y="24">y the Bic</tspan><tspan class="cls-128" x="82.93" y="24">y</tspan><tspan x="90.71" y="24">cle Net</tspan><tspan class="cls-128" x="149.63" y="24">w</tspan><tspan x="163.57" y="24">ork Anal</tspan><tspan class="cls-126" x="231.3" y="24">y</tspan><tspan x="239.32" y="24">sis.</tspan></tspan><tspan class="cls-45" x="0" y="72">T</tspan><tspan class="cls-44" x="8.04" y="72">he </tspan><tspan class="cls-27" x="34.27" y="72">Bic</tspan><tspan class="cls-29" x="61.08" y="72">y</tspan><tspan class="cls-27" x="70.36" y="72">cle Net</tspan><tspan class="cls-29" x="130.17" y="72">w</tspan><tspan class="cls-27" x="145.55" y="72">ork Anal</tspan><tspan class="cls-30" x="217.63" y="72">y</tspan><tspan class="cls-27" x="227.1" y="72">sis (BNA)</tspan><tspan class="cls-44" x="302.86" y="72" xml:space="preserve"> is s</tspan><tspan class="cls-39" x="332.17" y="72">o</tspan><tspan class="cls-40" x="342.52" y="72">f</tspan><tspan class="cls-44" x="347.76" y="72">t</tspan><tspan class="cls-55" x="354.08" y="72">w</tspan><tspan class="cls-44" x="368.09" y="72">are that analy</tspan><tspan class="cls-47" x="480.05" y="72">z</tspan><tspan class="cls-44" x="488.67" y="72">es the quality and </tspan><tspan class="cls-52" x="641.14" y="72">c</tspan><tspan class="cls-44" x="650.16" y="72">on</tspan><tspan class="cls-44" x="671.55" y="72">-</tspan><tspan class="cls-44"><tspan x="0" y="96">nectivity </tspan><tspan class="cls-70" x="72.83" y="96">o</tspan><tspan x="83.18" y="96">f city bi</tspan><tspan class="cls-81" x="142.36" y="96">k</tspan><tspan x="151.37" y="96">e inf</tspan><tspan class="cls-99" x="186.95" y="96">r</tspan><tspan x="192.42" y="96">astructure. </tspan><tspan class="cls-83" x="283.52" y="96">T</tspan><tspan x="291.56" y="96">he BNA </tspan><tspan class="cls-78" x="360.63" y="96">e</tspan><tspan class="cls-121" x="370.39" y="96">v</tspan><tspan x="378.21" y="96">alua</tspan><tspan class="cls-94" x="412.81" y="96">t</tspan><tspan x="418.98" y="96">es whether </tspan><tspan class="cls-86" x="515.35" y="96">e</tspan><tspan x="524.85" y="96">xisting road </tspan></tspan><tspan class="cls-44"><tspan class="cls-99" x="0" y="120">c</tspan><tspan x="9.03" y="120">onditions are sa</tspan><tspan class="cls-92" x="138.39" y="120">f</tspan><tspan x="143.43" y="120">e </tspan><tspan class="cls-92" x="158.54" y="120">f</tspan><tspan x="163.57" y="120">or people </tspan><tspan class="cls-126" x="247.72" y="120">o</tspan><tspan x="258.07" y="120">f all ages and abilities </tspan><tspan class="cls-94" x="439.19" y="120">t</tspan><tspan x="445.36" y="120">o bi</tspan><tspan class="cls-81" x="476.49" y="120">k</tspan><tspan x="485.5" y="120">e from where th</tspan><tspan class="cls-128" x="618.83" y="120">e</tspan><tspan x="628.58" y="120">y li</tspan><tspan class="cls-128" x="650.39" y="120">v</tspan><tspan x="658.15" y="120">e </tspan></tspan><tspan class="cls-44"><tspan class="cls-94" x="0" y="144">t</tspan><tspan x="6.17" y="144">o pla</tspan><tspan class="cls-75" x="47.11" y="144">c</tspan><tspan x="56.13" y="144">es th</tspan><tspan class="cls-128" x="96.12" y="144">e</tspan><tspan x="105.88" y="144">y </tspan><tspan class="cls-121" x="119.02" y="144">w</tspan><tspan x="133.02" y="144">ant </tspan><tspan class="cls-125" x="165.1" y="144">t</tspan><tspan x="171.27" y="144">o go using data from OpenStreetMap and the national </tspan></tspan><tspan class="cls-44"><tspan x="0" y="168">population </tspan><tspan class="cls-99" x="95.2" y="168">c</tspan><tspan x="104.23" y="168">ensus. </tspan><tspan class="cls-64" x="159.19" y="168">T</tspan><tspan x="167.23" y="168">he final result is the City Ratings s</tspan><tspan class="cls-99" x="442.4" y="168">c</tspan><tspan x="451.43" y="168">ore.</tspan></tspan></text><text class="cls-67" transform="translate(149.34 612.88)"><tspan class="cls-4" x="0" y="0">Sa</tspan><tspan class="cls-12" x="21.94" y="0">f</tspan><tspan class="cls-4" x="28.15" y="0">e Speeds: </tspan><tspan class="cls-44" x="119.71" y="0">Sl</tspan><tspan class="cls-26" x="135.18" y="0">o</tspan><tspan class="cls-44" x="145.89" y="0">w d</tspan><tspan class="cls-57" x="178.46" y="0">o</tspan><tspan class="cls-51" x="189.17" y="0">w</tspan><tspan class="cls-44" x="204.37" y="0">n </tspan><tspan class="cls-62" x="221.43" y="0">c</tspan><tspan class="cls-44" x="230.84" y="0">ars </tspan><tspan class="cls-60" x="260.61" y="0">t</tspan><tspan class="cls-44" x="267.15" y="0">o ma</tspan><tspan class="cls-42" x="312.54" y="0">k</tspan><tspan class="cls-44" x="322.08" y="0">e roads sa</tspan><tspan class="cls-43" x="409.06" y="0">f</tspan><tspan class="cls-44" x="414.38" y="0">er </tspan><tspan class="cls-54" x="436.69" y="0">f</tspan><tspan class="cls-44" x="442.01" y="0">or all modes </tspan><tspan class="cls-39" x="555.46" y="0">o</tspan><tspan class="cls-44" x="566.42" y="0">f </tspan><tspan class="cls-44"><tspan x="0" y="21.6">t</tspan><tspan class="cls-69" x="6.7" y="21.6">r</tspan><tspan class="cls-95" x="12.49" y="21.6">a</tspan><tspan class="cls-25" x="22.21" y="21.6">v</tspan><tspan x="30.42" y="21.6">el.</tspan></tspan><tspan class="cls-5" x="0" y="64.8">P</tspan><tspan class="cls-19" x="12.65" y="64.8">r</tspan><tspan class="cls-4" x="19.82" y="64.8">o</tspan><tspan class="cls-2" x="31.25" y="64.8">t</tspan><tspan class="cls-4" x="38.38" y="64.8">e</tspan><tspan class="cls-24" x="49.39" y="64.8">c</tspan><tspan class="cls-2" x="59.8" y="64.8">t</tspan><tspan class="cls-4" x="66.92" y="64.8">ed Bi</tspan><tspan class="cls-13" x="113.7" y="64.8">k</tspan><tspan class="cls-4" x="124.4" y="64.8">e Lanes:</tspan><tspan class="cls-44" x="198.09" y="64.8" xml:space="preserve"> Build pro</tspan><tspan class="cls-36" x="284.16" y="64.8">t</tspan><tspan class="cls-44" x="290.69" y="64.8">ec</tspan><tspan class="cls-60" x="311.36" y="64.8">t</tspan><tspan class="cls-44" x="317.89" y="64.8">ed bi</tspan><tspan class="cls-42" x="362.62" y="64.8">k</tspan><tspan class="cls-44" x="372.16" y="64.8">e lanes </tspan><tspan class="cls-36" x="438.58" y="64.8">t</tspan><tspan class="cls-44" x="445.11" y="64.8">o sepa</tspan><tspan class="cls-61" x="502.24" y="64.8">r</tspan><tspan class="cls-44" x="508.04" y="64.8">a</tspan><tspan class="cls-36" x="518.25" y="64.8">t</tspan><tspan class="cls-44" x="524.78" y="64.8">e people </tspan><tspan class="cls-44"><tspan x="0" y="86.4">biking from people driving and </tspan><tspan class="cls-112" x="276.63" y="86.4">w</tspan><tspan class="cls-106" x="291.47" y="86.4">alking.</tspan></tspan><tspan class="cls-4" x="0" y="129.6">R</tspan><tspan class="cls-8" x="13.09" y="129.6">e</tspan><tspan class="cls-4" x="23.83" y="129.6">alloca</tspan><tspan class="cls-2" x="77.11" y="129.6">t</tspan><tspan class="cls-4" x="84.24" y="129.6">ed S</tspan><tspan class="cls-20" x="123.55" y="129.6">p</tspan><tspan class="cls-4" x="135.73" y="129.6">a</tspan><tspan class="cls-12" x="146.5" y="129.6">c</tspan><tspan class="cls-4" x="156.63" y="129.6">e: </tspan><tspan class="cls-37" x="176.58" y="129.6">C</tspan><tspan class="cls-44" x="188.89" y="129.6">o</tspan><tspan class="cls-49" x="199.87" y="129.6">n</tspan><tspan class="cls-26" x="211.04" y="129.6">v</tspan><tspan class="cls-44" x="219.25" y="129.6">ert </tspan><tspan class="cls-35" x="248.25" y="129.6">e</tspan><tspan class="cls-42" x="258.31" y="129.6">x</tspan><tspan class="cls-61" x="266.99" y="129.6">c</tspan><tspan class="cls-44" x="276.54" y="129.6">ess road spa</tspan><tspan class="cls-61" x="383.46" y="129.6">c</tspan><tspan class="cls-44" x="393.02" y="129.6">e in</tspan><tspan class="cls-36" x="425.19" y="129.6">t</tspan><tspan class="cls-44" x="431.72" y="129.6">o pro</tspan><tspan class="cls-36" x="477.46" y="129.6">t</tspan><tspan class="cls-44" x="483.99" y="129.6">ec</tspan><tspan class="cls-60" x="504.65" y="129.6">t</tspan><tspan class="cls-44" x="511.19" y="129.6">ed bi</tspan><tspan class="cls-42" x="555.92" y="129.6">k</tspan><tspan class="cls-44" x="565.46" y="129.6">e </tspan><tspan class="cls-44"><tspan x="0" y="151.2">lanes, sid</tspan><tspan class="cls-25" x="78.17" y="151.2">e</tspan><tspan class="cls-93" x="88.5" y="151.2">w</tspan><tspan x="103.34" y="151.2">al</tspan><tspan class="cls-115" x="118.22" y="151.2">k</tspan><tspan x="128.1" y="151.2">s, greene</tspan><tspan class="cls-100" x="205.75" y="151.2">r</tspan><tspan x="212.58" y="151.2">y, bi</tspan><tspan class="cls-77" x="246.31" y="151.2">k</tspan><tspan x="255.85" y="151.2">e parking, and ou</tspan><tspan class="cls-65" x="408.47" y="151.2">t</tspan><tspan x="415" y="151.2">door seating.</tspan></tspan><tspan class="cls-4" x="0" y="194.4">In</tspan><tspan class="cls-2" x="17.84" y="194.4">t</tspan><tspan class="cls-4" x="24.97" y="194.4">e</tspan><tspan class="cls-10" x="35.98" y="194.4">r</tspan><tspan class="cls-4" x="43.34" y="194.4">se</tspan><tspan class="cls-24" x="63.38" y="194.4">c</tspan><tspan class="cls-4" x="73.78" y="194.4">tion </tspan><tspan class="cls-3" x="114.78" y="194.4">T</tspan><tspan class="cls-19" x="125.12" y="194.4">r</tspan><tspan class="cls-9" x="132.28" y="194.4">e</tspan><tspan class="cls-4" x="143.03" y="194.4">atments: </tspan><tspan class="cls-44" x="228.94" y="194.4">Shor</tspan><tspan class="cls-36" x="268.77" y="194.4">t</tspan><tspan class="cls-44" x="275.3" y="194.4">en crossing distan</tspan><tspan class="cls-61" x="432.06" y="194.4">c</tspan><tspan class="cls-44" x="441.62" y="194.4">es and install </tspan><tspan class="cls-44"><tspan x="0" y="216">sa</tspan><tspan class="cls-90" x="18.07" y="216">f</tspan><tspan x="23.4" y="216">ety </tspan><tspan class="cls-90" x="54.61" y="216">f</tspan><tspan x="59.94" y="216">eatures </tspan><tspan class="cls-65" x="129.15" y="216">t</tspan><tspan x="135.68" y="216">o ensure people </tspan><tspan class="cls-84" x="282.45" y="216">c</tspan><tspan x="291.86" y="216">an sa</tspan><tspan class="cls-90" x="337.21" y="216">f</tspan><tspan x="342.53" y="216">ely cross the street. </tspan></tspan><tspan class="cls-4" x="0" y="259.2">Ne</tspan><tspan class="cls-22" x="25.63" y="259.2">t</tspan><tspan class="cls-9" x="32.9" y="259.2">w</tspan><tspan class="cls-4" x="48.82" y="259.2">o</tspan><tspan class="cls-18" x="60.25" y="259.2">r</tspan><tspan class="cls-4" x="67.5" y="259.2">k </tspan><tspan class="cls-13" x="83.43" y="259.2">C</tspan><tspan class="cls-4" x="96.05" y="259.2">onne</tspan><tspan class="cls-24" x="143.01" y="259.2">c</tspan><tspan class="cls-4" x="153.41" y="259.2">tions:</tspan><tspan class="cls-44" x="202.68" y="259.2" xml:space="preserve"> Fill gaps in the bi</tspan><tspan class="cls-42" x="356.81" y="259.2">k</tspan><tspan class="cls-44" x="366.35" y="259.2">e net</tspan><tspan class="cls-26" x="411.31" y="259.2">w</tspan><tspan class="cls-44" x="426.07" y="259.2">ork so that people </tspan><tspan class="cls-44"><tspan class="cls-102" x="0" y="280.8">c</tspan><tspan x="9.41" y="280.8">an t</tspan><tspan class="cls-91" x="43.38" y="280.8">r</tspan><tspan class="cls-120" x="49.17" y="280.8">a</tspan><tspan class="cls-88" x="58.9" y="280.8">v</tspan><tspan x="67.1" y="280.8">el from their homes </tspan><tspan class="cls-96" x="245.48" y="280.8">t</tspan><tspan x="252.01" y="280.8">o </tspan><tspan class="cls-88" x="268.39" y="280.8">ev</tspan><tspan x="286.93" y="280.8">e</tspan><tspan class="cls-31" x="297.53" y="280.8">r</tspan><tspan class="cls-25" x="304.35" y="280.8">y</tspan><tspan x="312.6" y="280.8">d</tspan><tspan class="cls-95" x="324.75" y="280.8">a</tspan><tspan x="334.46" y="280.8">y destinations. </tspan></tspan><tspan class="cls-3" x="0" y="324">T</tspan><tspan class="cls-4" x="10.33" y="324">rus</tspan><tspan class="cls-2" x="38.92" y="324">t</tspan><tspan class="cls-4" x="46.04" y="324">ed Data:</tspan><tspan class="cls-44" x="122.11" y="324"> </tspan><tspan class="cls-59" x="127.51" y="324">T</tspan><tspan class="cls-61" x="136.06" y="324">r</tspan><tspan class="cls-44" x="141.85" y="324">ack inf</tspan><tspan class="cls-61" x="199.11" y="324">r</tspan><tspan class="cls-44" x="204.91" y="324">astructure and sa</tspan><tspan class="cls-54" x="355.6" y="324">f</tspan><tspan class="cls-44" x="360.93" y="324">ety data </tspan><tspan class="cls-36" x="436.8" y="324">t</tspan><tspan class="cls-44" x="443.33" y="324">o measure </tspan><tspan class="cls-44"><tspan x="0" y="345.6">progress </tspan><tspan class="cls-65" x="78.77" y="345.6">t</tspan><tspan class="cls-25" x="85.3" y="345.6">o</tspan><tspan class="cls-93" x="96.01" y="345.6">w</tspan><tspan x="110.84" y="345.6">ards building sa</tspan><tspan class="cls-90" x="248.72" y="345.6">f</tspan><tspan x="254.05" y="345.6">e streets and reducing c</tspan><tspan class="cls-69" x="465.15" y="345.6">r</tspan><tspan x="470.94" y="345.6">ashes.</tspan></tspan></text><text class="cls-38" transform="translate(69.74 574.05)"><tspan x="0" y="0">Cities </tspan><tspan class="cls-102" x="52.22" y="0">c</tspan><tspan x="61.63" y="0">an impr</tspan><tspan class="cls-25" x="130.59" y="0">ov</tspan><tspan x="149.51" y="0">e their s</tspan><tspan class="cls-69" x="218.64" y="0">c</tspan><tspan x="228.2" y="0">ore using the SPRINT f</tspan><tspan class="cls-69" x="424.04" y="0">r</tspan><tspan x="429.83" y="0">am</tspan><tspan class="cls-25" x="458.85" y="0">ew</tspan><tspan x="483.94" y="0">ork. </tspan></text><text class="cls-122" transform="translate(43.77 1022.37) scale(.92 1)"><tspan class="cls-44" x="0" y="0">Visit </tspan><tspan class="cls-6" x="38.23" y="0">c</tspan><tspan class="cls-14" x="47.82" y="0">i</tspan><tspan class="cls-11" x="52.56" y="0">t</tspan><tspan class="cls-4" x="59.43" y="0">y</tspan><tspan class="cls-17" x="68.93" y="0">r</tspan><tspan class="cls-4" x="75.12" y="0">atings.people</tspan><tspan class="cls-16" x="192.28" y="0">f</tspan><tspan class="cls-4" x="198.15" y="0">o</tspan><tspan class="cls-6" x="208.94" y="0">r</tspan><tspan class="cls-14" x="215.8" y="0">bi</tspan><tspan class="cls-1" x="232.13" y="0">k</tspan><tspan class="cls-4" x="242.23" y="0">es</tspan><tspan class="cls-23" x="261.15" y="0">.</tspan><tspan class="cls-4" x="264.81" y="0">o</tspan><tspan class="cls-23" x="275.6" y="0">r</tspan><tspan class="cls-14" x="282.37" y="0">g</tspan><tspan class="cls-46" x="294.1" y="0" xml:space="preserve"> and </tspan><tspan class="cls-14" x="336.43" y="0">bna.people</tspan><tspan class="cls-21" x="433.15" y="0">f</tspan><tspan class="cls-4" x="439.02" y="0">o</tspan><tspan class="cls-15" x="449.81" y="0">r</tspan><tspan class="cls-14" x="456.67" y="0">bi</tspan><tspan class="cls-1" x="473" y="0">k</tspan><tspan class="cls-4" x="483.1" y="0">es</tspan><tspan class="cls-23" x="502.02" y="0">.</tspan><tspan class="cls-4" x="505.68" y="0">o</tspan><tspan class="cls-23" x="516.47" y="0">r</tspan><tspan class="cls-14" x="523.24" y="0">g </tspan><tspan class="cls-48" x="539.54" y="0">f</tspan><tspan class="cls-44" x="544.57" y="0">or more in</tspan><tspan class="cls-41" x="630.45" y="0">f</tspan><tspan class="cls-46" x="635.49" y="0">ormation and data.</tspan></text><g><g><path class="cls-28" d="M109.12,930.64h5.7v24.92h-5.7v-24.92Z"/><path class="cls-28" d="M75.82,948.36c-.43-.62-.8-1.17-1.21-1.77,12.08-7.41,24.13-14.8,36.37-22.31-1.06-.23-1.92-.41-2.93-.64,.78-.48,1.44-.89,2.1-1.29,.09-.06,.24-.08,.35-.06,1.43,.27,2.86,.55,4.37,.86-.31,1.4-.6,2.74-.94,4.08-.05,.19-.29,.36-.49,.49-.55,.36-1.11,.7-1.81,1.12,.19-.94,.36-1.75,.57-2.78-12.23,7.5-24.28,14.88-36.39,22.32v-.02Z"/><path class="cls-28" d="M100.38,936.75h5.64v18.78h-5.64v-18.78Z"/><path class="cls-28" d="M97.25,955.56h-5.71v-13.3h5.71v13.3Z"/><path class="cls-28" d="M83.09,955.54v-8.06h5.71v8.06h-5.71Z"/><path class="cls-28" d="M74.32,951.13h5.68v4.43h-5.68v-4.43Z"/></g><g><g><path class="cls-104" d="M76.93,818.57h-2.7v6.39h2.7c4.6,0,7.63-2.29,9.63-4.84-1.17-1.55-2.16-3.28-2.87-5.13l-.41-1.08c-1.63,3.28-3.57,4.66-6.35,4.66m26.9-21.75h-4.54c-3.41,0-7.08,1.99-9.89,5.03,.9,1.45,1.7,3.09,2.41,4.94l.48,1.27c1.76-2.74,4.66-4.85,7-4.85h4.54v4.95l11.32-8.15-11.32-8.15v4.95h0Z"/><g class="cls-107"><rect class="cls-104" x="73.92" y="791.52" width="41.55" height="33.78"/></g></g><g><path class="cls-28" d="M74.23,796.59v6.39h2.7c3.35,0,5.47,1.99,7.32,6.9l1.5,3.99c2.3,6.11,8.24,10.88,13.54,10.88h4.54v4.95l11.32-8.15-11.32-8.14v4.95h-4.54c-2.89,0-6.65-3.23-8.04-6.9l-1.5-3.99c-1.02-2.69-4.11-10.87-12.82-10.87h-2.69Z"/><g class="cls-87"><rect class="cls-28" x="73.92" y="796.24" width="41.55" height="33.78"/></g></g></g><g><path class="cls-28" d="M92.29,629.2c-.34,0-.67-.02-1.02-.05l-.62,6.67c.54,.05,1.08,.07,1.63,.07,.61,0,1.23-.03,1.83-.08l-.7-6.66c-.37,.03-.75,.06-1.13,.06m-7.58,5.16c1.05,.45,2.14,.8,3.28,1.06l1.65-6.51c-.7-.16-1.37-.37-2.02-.65l-2.93,6.1h.01Zm10.47-5.51l1.8,6.47c1.13-.28,2.23-.66,3.26-1.12l-3.07-6.03c-.64,.29-1.31,.52-2,.69m-15.42,2.43c.85,.74,1.78,1.4,2.76,1.98l3.77-5.68c-.61-.36-1.18-.76-1.7-1.23l-4.83,4.91h0Zm-3.55-4.21c.58,.95,1.24,1.85,1.98,2.68l5.43-4.32c-.47-.51-.87-1.06-1.23-1.65l-6.19,3.29Zm-1.96-4.84c.25,1.08,.6,2.13,1.05,3.12l6.54-2.62c-.27-.61-.49-1.25-.65-1.91,0,0-6.95,1.41-6.95,1.41Zm-.43-3.69c0,.67,.05,1.34,.12,1.99l7.07-.76c-.05-.4-.07-.81-.07-1.23,0-.27,.01-.53,.04-.79l-7.09-.49c-.04,.42-.06,.84-.06,1.27m.23-2.79l7.02,1.06c.11-.67,.29-1.32,.54-1.94l-6.69-2.29c-.39,1.02-.69,2.07-.87,3.17m1.41-4.38l6.48,2.76c.29-.61,.65-1.19,1.05-1.75l-5.81-3.86c-.66,.89-1.24,1.84-1.73,2.83m2.44-3.72l5.54,4.2c.45-.52,.94-1.01,1.49-1.43l-4.61-5.1c-.88,.71-1.69,1.49-2.41,2.34m3.17-2.91l4.32,5.32c.56-.4,1.18-.76,1.81-1.06l-3.19-5.98c-1.04,.49-2.02,1.08-2.94,1.73m3.63-2.03l2.93,6.1c.64-.28,1.31-.49,2.01-.65l-1.65-6.51c-1.14,.25-2.24,.61-3.28,1.05m3.81-1.17l1.45,6.55c.69-.14,1.4-.21,2.12-.22l-.12-6.69c-1.18,.02-2.33,.14-3.44,.36m3.77,6.34c6.1,0,11.07,4.53,11.34,10.21h-3.5l7.06,9.32,7.06-9.32h-3.49c-.27-9.38-8.43-16.9-18.45-16.9v6.69h-.01Z"/><g class="cls-73"><rect class="cls-28" x="73.5" y="600.83" width="41.06" height="35.36"/></g></g><g><polygon class="cls-28" points="103.95 680.71 83.3 680.71 83.3 684.53 103.95 684.53 103.95 687.23 112.16 682.62 103.95 678.01 103.95 680.71"/><g><g><rect class="cls-28" x="121.67" y="666.91" width="4.12" height="3.87"/><rect class="cls-28" x="113" y="666.91" width="4.12" height="3.87"/><rect class="cls-28" x="104.34" y="666.91" width="4.12" height="3.87"/><rect class="cls-28" x="95.67" y="666.91" width="4.12" height="3.87"/><rect class="cls-28" x="87" y="666.91" width="4.12" height="3.87"/><rect class="cls-28" x="78.34" y="666.91" width="4.12" height="3.87"/><rect class="cls-28" x="69.67" y="666.91" width="4.12" height="3.87"/></g><rect class="cls-28" x="69.67" y="672.38" width="56.12" height=".97"/></g><g><g><rect class="cls-28" x="69.66" y="694.46" width="4.12" height="3.87"/><rect class="cls-28" x="78.33" y="694.46" width="4.12" height="3.87"/><rect class="cls-28" x="87" y="694.46" width="4.12" height="3.87"/><rect class="cls-28" x="95.67" y="694.46" width="4.12" height="3.87"/><rect class="cls-28" x="104.33" y="694.46" width="4.12" height="3.87"/><rect class="cls-28" x="113.01" y="694.46" width="4.12" height="3.87"/><rect class="cls-28" x="121.67" y="694.46" width="4.12" height="3.87"/></g><rect class="cls-28" x="69.67" y="691.9" width="56.12" height=".97"/></g></g><g><g><path class="cls-104" d="M74.31,728.85v7.46h8.37c1.79,0,3.09,1.44,3.87,4.25,1.64,5.95,6.21,9.66,11.96,9.66h8.37v4.5l10.99-8.22-10.99-8.23v4.5h-8.37c-3.41,0-4.65-2.67-5.08-4.25-1.66-6.04-5.67-9.66-10.73-9.66h-8.38Z"/><g class="cls-111"><rect class="cls-104" x="73.99" y="728.5" width="44.2" height="26.56"/></g></g><g><path class="cls-104" d="M86.78,752.6c-.78,2.88-2.08,4.34-3.88,4.34h-8.41v7.6h8.41c5.08,0,9.1-3.68,10.78-9.84,.26-.96,.81-2.31,1.92-3.24-2.6-.39-4.91-1.61-6.71-3.47-.92,1.34-1.64,2.88-2.12,4.62"/><g class="cls-89"><rect class="cls-104" x="74.15" y="747.64" width="21.78" height="17.25"/></g></g></g><g><g><path class="cls-28" d="M77.94,854.65c-.36,.37-.56,.85-.56,1.34v.06c0,.48,.19,.97,.56,1.34l9.8,9.92h-7.52c-1.21,0-2.19,1-2.19,2.21s.98,2.21,2.19,2.21h14.61v-14.79c0-1.23-.98-2.21-2.19-2.21s-2.19,1-2.19,2.21v7.62l-9.8-9.92c-.38-.37-.86-.57-1.35-.57s-.98,.18-1.35,.57"/><g class="cls-119"><rect class="cls-28" x="77.05" y="853.75" width="18.09" height="18.32"/></g></g><g><path class="cls-28" d="M100.64,877.96v14.79c0,1.23,.98,2.21,2.19,2.21s2.2-1,2.2-2.21v-7.62l9.8,9.92c.74,.75,1.96,.75,2.7,0s.74-1.98,0-2.73l-9.8-9.92h7.53c1.21,0,2.2-1,2.2-2.21s-.98-2.21-2.2-2.21h-14.61Z"/><g class="cls-79"><rect class="cls-28" x="100.32" y="877.63" width="18.28" height="18.51"/></g></g><g><path class="cls-28" d="M114.82,854.65l-9.8,9.92v-7.62c0-1.23-.98-2.21-2.19-2.21s-2.19,1-2.19,2.21v14.79h14.61c1.21,0,2.2-1,2.2-2.21s-.98-2.21-2.2-2.21h-7.53l9.8-9.92c.74-.75,.74-1.98,0-2.73-.38-.38-.86-.57-1.35-.57s-.97,.18-1.35,.57"/><g class="cls-85"><rect class="cls-28" x="100.32" y="853.57" width="18.28" height="18.51"/></g></g><g><path class="cls-28" d="M80.22,877.96c-1.21,0-2.19,1-2.19,2.21s.98,2.23,2.19,2.23h7.53l-9.8,9.92c-.74,.75-.74,1.98,0,2.73s1.96,.75,2.7,0l9.8-9.92v7.62c0,1.23,.98,2.21,2.19,2.21s2.19-1,2.19-2.21v-14.79h-14.6Z"/><g class="cls-114"><rect class="cls-28" x="76.87" y="877.63" width="18.28" height="18.51"/></g></g></g></g><g><path d="M333.22,163.61c0,4.11,.35,5.42,3.96,5.42h1.83c3.58,0,3.96-1.32,3.96-5.42v-12.84h7.26v14.07c0,8.82-2.09,11.36-10.22,11.36h-4.2c-8.04,0-10.23-2.54-10.23-11.36v-39.32c0-8.83,2.18-11.36,10.23-11.36h4.2c8.13,0,10.22,2.53,10.22,11.36v11.45h-7.26v-10.23c0-4.1-.35-5.42-3.96-5.42h-1.89c-3.58,0-3.96,1.32-3.96,5.42l.05,36.88Z"/><path d="M354.79,114.59h7.69v61.17h-7.69v-61.17Z"/><path d="M372.65,175.76v-54h-6.73v-7.16h21.06v7.16h-6.64v54h-7.69Z"/><path d="M398.7,175.76v-20.62l-9.61-40.54h7.78l3.23,14.41c1.29,5.53,2.25,11.14,2.88,16.78,.68-5.64,1.64-11.24,2.89-16.78l3.23-14.41h6.81l-9.53,40.54v20.62h-7.69Z"/><path d="M456.81,165.01c-.09,3.63,.36,7.25,1.32,10.75h-8.05c-.88-1.98-.96-5.68-.96-9.52v-11.72c0-4.19-.7-6.12-4.55-6.12h-5.15v27.35h-7.69v-61.17h14.86c8.13,0,10.23,2.53,10.23,11.36v8.3c0,6.38-1.14,9.44-4.89,10.55,3.75,1.23,4.89,4.28,4.89,10.75v9.46Zm-7.69-37.83c0-4.1-.26-5.42-3.96-5.42h-5.77v19.49h5.77c3.58,0,3.96-1.32,3.96-5.42v-8.66Z"/><path d="M479.2,166.41h-9.9l-1.32,9.35h-6.84l8.31-61.17h10.55l8.19,61.17h-7.68l-1.31-9.35Zm-8.91-7.16h7.96l-.96-7.43c-1.58-12.24-2.45-22.63-3.06-30.85-.61,8.21-1.4,18.61-2.97,30.85l-.96,7.43Z"/><path d="M493.67,175.76v-54h-6.73v-7.16h21.04v7.16h-6.6v54h-7.71Z"/><path d="M511.48,114.59h7.71v61.17h-7.71v-61.17Z"/><path d="M532.45,140.38c-.87-3.85-1.4-7.43-1.92-11.02,.09,3.59,.17,7.17,.17,11.21v35.21h-6.64v-61.2h9.7l7.26,32.68c.87,3.85,1.48,7.43,1.98,11.01-.09-3.58-.35-7.16-.35-11.1v-32.59h6.73v61.17h-8.71l-8.22-35.38Z"/><path d="M566.69,141.85h12.06v22.98c0,8.82-2.1,11.36-10.23,11.36h-4.19c-8.04,0-10.23-2.54-10.23-11.36v-39.32c0-8.83,2.18-11.36,10.23-11.36h4.19c8.13,0,10.23,2.53,10.23,11.36v10.4h-7.26v-9.18c0-4.1-.35-5.42-3.96-5.42h-1.84c-3.58,0-3.96,1.32-3.96,5.42v36.88c0,4.11,.35,5.42,3.96,5.42h1.84c3.58,0,3.96-1.32,3.96-5.42v-14.59h-4.8v-7.16Z"/><path d="M599.29,159.33c0-5.5-1.32-7.16-7.43-12.67-7.08-6.38-8.91-9.08-8.91-17.15v-3.99c0-8.83,2.1-11.36,10.23-11.36h3.58c8.13,0,10.23,2.53,10.23,11.36v9.53h-7.26v-8.31c0-4.1-.26-5.42-3.96-5.42h-1.32c-3.58,0-3.96,1.32-3.96,5.28v2.88c0,5.5,1.32,7.26,7.43,12.76,7.07,6.38,9,9,9,17.04v5.59c0,8.82-2.18,11.36-10.23,11.36h-3.62c-8.04,0-10.14-2.54-10.14-11.36v-11.3h7.16v10.05c0,4.11,.26,5.42,3.96,5.42h1.32c3.58,0,3.96-1.32,3.96-5.42l-.05-4.29Z"/><path class="cls-105" d="M209.8,147.59v19.71c0,4.54,3.67,8.22,8.21,8.23h80.74c4.54,0,8.23-3.68,8.23-8.23h0v-19.71h-97.18Zm66.41,11.66c-10,9.43-25.62,9.43-35.62,0l-.25-.22,2.82-2.82,.23,.22c8.44,7.89,21.55,7.89,29.99,0l.23-.22,2.86,2.85-.26,.2Z"/><path class="cls-82" d="M298.75,73.75h-80.73c-4.54,0-8.22,3.68-8.22,8.22,0,0,0,0,0,0v61.54h20.45c-7.37-3.29-10.68-11.94-7.39-19.31,3.29-7.37,11.94-10.68,19.31-7.39,.26,.12,.51,.24,.77,.37l4.3-6.94-1.32-3.96c-.96-.2-1.51,0-3.01-.2s-1.7-.66-1.39-1.47,1.98-.46,3.46-.31,4.3-.41,5.63-.46c1.1-.02,2.08,.66,2.45,1.69-.66,.09-1.32,.14-1.98,.15-.74-.06-1.49,.08-2.16,.4-.25,.09-.51,.16-.77,.22l.98,2.98h22.46l-2.1-5.79h7.86c2.14,.01,3.87,1.76,3.85,3.91-.01,2.14-1.76,3.87-3.91,3.85h-.26v-2.06h.25c1.01,.01,1.83-.8,1.84-1.8,.01-1.01-.8-1.83-1.8-1.84h-4.86l3.81,10.48c1.27-.36,2.59-.54,3.91-.53,8.07,0,14.62,6.54,14.63,14.61,0,5.8-3.43,11.06-8.74,13.39h20.89v-61.54c0-4.54-3.67-8.22-8.21-8.23Z"/><path class="cls-82" d="M265.59,130.14c0-5.8,3.42-11.05,8.73-13.38l-1.48-4.02-16.77,17.75c-.45,.47-1.08,.74-1.73,.74h-3.64c-.39,5.4-3.74,10.14-8.7,12.32h32.32c-5.32-2.33-8.75-7.6-8.73-13.4Z"/><path class="cls-82" d="M243.13,120.87l-5.09,8.2h9.66c-.24-2.71-1.42-5.24-3.34-7.16-.38-.38-.79-.72-1.22-1.04Z"/><path class="cls-82" d="M244.73,118.3c3.48,2.54,5.67,6.48,5.98,10.78h2.74l-5.35-16.22-3.37,5.44Z"/><path class="cls-82" d="M227.92,121.91c-4.53,4.54-4.53,11.89,0,16.43,4.54,4.53,11.89,4.53,16.43,0,1.93-1.93,3.11-4.47,3.35-7.18h-9.66c-.57,1.11-1.94,1.55-3.05,.98-1.11-.57-1.55-1.94-.98-3.05,.39-.76,1.19-1.24,2.04-1.23h.24l5.03-8.09c-1.61-.82-3.4-1.24-5.2-1.23-3.08,0-6.03,1.21-8.21,3.38Z"/><path class="cls-82" d="M291.82,130.14c0-6.42-5.2-11.62-11.62-11.62-.97,0-1.94,.12-2.88,.36l3.3,9.03c1.23,.2,2.07,1.35,1.87,2.58-.2,1.23-1.35,2.07-2.58,1.87-1.23-.2-2.07-1.35-1.87-2.58,.07-.46,.28-.88,.61-1.21l-3.3-9c-1.25,.58-2.38,1.37-3.35,2.34-4.54,4.53-4.55,11.89-.02,16.43,4.53,4.54,11.89,4.55,16.43,.02,2.18-2.18,3.41-5.14,3.41-8.23h0Z"/><polygon class="cls-82" points="255.41 128.29 271.17 111.41 249.84 111.41 255.41 128.27 255.41 128.29"/><path class="cls-124" d="M338.99,100.55c-1.12,1.02-2.6,1.57-4.12,1.52-1.55,.1-3.05-.52-4.08-1.68v7.66h-4.23v-23.09h4.08v1.58c1.05-1.22,2.61-1.88,4.21-1.77,1.52-.04,2.99,.5,4.12,1.52,1.68,1.68,1.72,4.57,1.72,7.09s-.03,5.44-1.72,7.12m-5.34-11.95c-2.53,0-2.85,2.07-2.85,4.83s.32,4.86,2.85,4.86,2.85-2.1,2.85-4.86-.32-4.83-2.85-4.83"/><path class="cls-124" d="M346.84,94.75c0,2.17,1.32,3.76,3.69,3.76,1.45,.09,2.86-.49,3.82-1.59l2.57,2.49c-1.63,1.81-3.98,2.78-6.41,2.64-3.96,0-7.81-1.81-7.81-8.65,0-5.51,2.98-8.62,7.36-8.62,4.7,0,7.35,3.43,7.35,8.06v1.88l-10.56,.02Zm6.02-4.7c-.77-1.56-2.66-2.2-4.22-1.42-.62,.31-1.12,.81-1.42,1.42-.25,.57-.38,1.19-.38,1.81h6.41c0-.62-.14-1.24-.39-1.81"/><path class="cls-124" d="M372.34,100c-2.94,2.76-7.53,2.76-10.47,0-1.52-1.59-1.91-3.5-1.91-6.6s.39-4.96,1.91-6.54c2.94-2.77,7.53-2.77,10.47,0,1.52,1.58,1.91,3.49,1.91,6.54s-.4,4.99-1.91,6.6m-3.3-10.66c-.53-.51-1.24-.78-1.98-.75-.72-.04-1.43,.24-1.95,.75-.84,.9-.94,2.33-.94,4.08s.1,3.24,.97,4.11c.51,.51,1.22,.78,1.95,.75,.73,.04,1.45-.23,1.98-.75,.87-.87,.97-2.36,.97-4.11s-.1-3.21-.97-4.08"/><path class="cls-124" d="M389.45,100.55c-1.13,1.02-2.6,1.56-4.12,1.52-1.55,.1-3.06-.52-4.08-1.68v7.66h-4.21v-23.09h4.08v1.58c1.05-1.22,2.61-1.88,4.22-1.77,1.52-.04,2.99,.5,4.12,1.52,1.68,1.68,1.72,4.57,1.72,7.09s-.03,5.44-1.72,7.12m-5.35-11.95c-2.53,0-2.85,2.07-2.85,4.83s.32,4.86,2.85,4.86,2.85-2.1,2.85-4.86-.32-4.83-2.85-4.83"/><path class="cls-124" d="M398.65,101.88c-3.47,0-4.93-2.43-4.93-4.83v-18.24h4.22v17.98c0,1.02,.42,1.53,1.49,1.53h1.62v3.56h-2.4Z"/><path class="cls-124" d="M406.43,94.75c0,2.17,1.32,3.76,3.69,3.76,1.45,.1,2.87-.49,3.83-1.59l2.56,2.49c-1.63,1.8-3.99,2.78-6.41,2.64-3.99,0-7.81-1.81-7.81-8.65,0-5.51,2.98-8.62,7.36-8.62,4.7,0,7.36,3.43,7.36,8.06v1.88l-10.56,.02Zm6.02-4.7c-.77-1.56-2.66-2.19-4.22-1.41-.61,.31-1.11,.8-1.41,1.41-.25,.57-.38,1.19-.39,1.81h6.41c0-.62-.14-1.24-.39-1.81"/><path class="cls-123" d="M424.61,91.16v10.73h-3.42v-10.73h-1.42v-2.61h1.42v-1.72c-.11-2.06,1.48-3.82,3.54-3.93,.15,0,.31,0,.46,0h1.95v2.9h-1.32c-.81,0-1.19,.46-1.19,1.25v1.5h2.53v2.61h-2.56Z"/><path class="cls-123" d="M438.09,100.35c-2.39,2.24-6.11,2.24-8.5,0-1.24-1.32-1.56-2.84-1.56-5.34s.32-4.04,1.56-5.32c2.39-2.25,6.12-2.25,8.5,0,1.24,1.29,1.56,2.84,1.56,5.32s-.32,4.05-1.56,5.34m-2.64-8.67c-.43-.41-1.01-.63-1.6-.61-.59-.03-1.16,.19-1.58,.61-.71,.71-.79,1.9-.79,3.3s.08,2.64,.79,3.34c.42,.41,.99,.63,1.58,.6,.58,.03,1.14-.18,1.56-.57,.71-.71,.79-1.93,.79-3.34s-.08-2.64-.79-3.3"/><path class="cls-123" d="M449.37,91.9c-.45-.54-1.12-.83-1.82-.81-1.05,0-2.21,.79-2.21,2.53v8.27h-3.42v-13.73h3.34v1.32c.89-.96,2.14-1.5,3.45-1.48,1.22-.06,2.41,.42,3.24,1.32l-2.58,2.58Z"/><path class="cls-124" d="M466.85,100.55c-1.12,1.02-2.6,1.57-4.12,1.52-1.6,.1-3.16-.56-4.21-1.78v1.58h-4.08v-23.09h4.21v7.71c1.03-1.16,2.53-1.79,4.08-1.68,1.52-.04,2.99,.5,4.12,1.52,1.69,1.68,1.72,4.57,1.72,7.09s0,5.44-1.72,7.12m-5.34-11.95c-2.53,0-2.86,2.07-2.86,4.83s.33,4.86,2.86,4.86,2.85-2.1,2.85-4.86-.32-4.83-2.85-4.83"/><path class="cls-124" d="M472.48,78.68h4.31v3.44h-4.31v-3.44Zm.07,6.32h4.21v16.88h-4.21v-16.88Z"/><polygon class="cls-124" points="491.56 101.88 487.41 94.85 485.64 96.86 485.64 101.88 481.42 101.88 481.42 78.82 485.64 78.82 485.64 91.9 491.24 85 496.32 85 490.3 91.8 496.77 101.88 491.56 101.88"/><path class="cls-124" d="M502.08,94.75c0,2.17,1.32,3.76,3.69,3.76,1.45,.09,2.86-.5,3.82-1.59l2.56,2.49c-1.63,1.81-3.99,2.78-6.42,2.64-3.96,0-7.81-1.81-7.81-8.65,0-5.51,2.98-8.62,7.36-8.62,4.7,0,7.36,3.43,7.36,8.06v1.88l-10.56,.02Zm6.02-4.7c-.77-1.56-2.66-2.2-4.22-1.42-.62,.31-1.12,.81-1.42,1.42-.25,.57-.38,1.19-.38,1.81h6.41c0-.62-.14-1.24-.39-1.81"/><path class="cls-124" d="M522.28,102.08c-2.64,0-5.05-.29-7.19-2.43l2.78-2.76c1.22,1.12,2.85,1.69,4.5,1.59,1.46,0,2.98-.48,2.98-1.75,0-.84-.46-1.42-1.78-1.56l-2.64-.26c-3.04-.29-4.93-1.62-4.93-4.73,0-3.5,3.09-5.38,6.52-5.38,2.64,0,4.83,.46,6.45,1.98l-2.59,2.64c-.97-.88-2.46-1.13-3.92-1.13-1.68,0-2.39,.78-2.39,1.62,0,.61,.26,1.32,1.75,1.45l2.64,.26c3.34,.32,5.02,2.1,5.02,4.95,0,3.73-3.17,5.51-7.16,5.51"/></g></svg>